<?xml version="1.0" encoding="UTF-8"?>
<svg xmlns="http://www.w3.org/2000/svg" version="1.1"
     width="138" height="166" viewBox="0 0 138 166">
  <title>Forge — StudyForge Mascot (neutral)</title>
  <g transform="scale(0.25)">
<g transform="translate(0.000000,664.000000) scale(0.100000,-0.100000)"
fill="#fae1af" stroke="none">
<path d="M1144 3263 c-45 -3 -67 -9 -79 -23 -13 -15 -31 -20 -65 -20 -25 0
-55 -7 -66 -15 -10 -8 -27 -15 -36 -15 -9 0 -29 -11 -45 -24 -16 -14 -43 -28
-59 -32 -41 -10 -64 -33 -64 -66 0 -25 3 -28 35 -28 28 0 35 4 35 20 0 15 7
20 25 20 18 0 25 -5 25 -19 0 -15 10 -20 58 -24 144 -14 152 -17 152 -48 0
-19 -9 -37 -25 -51 -14 -12 -25 -30 -25 -40 0 -12 -7 -18 -23 -18 -27 0 -67
-38 -67 -63 0 -9 -6 -17 -13 -17 -24 0 -49 -37 -45 -67 3 -28 4 -28 81 -31 64
-2 77 0 77 13 0 24 70 21 77 -4 3 -10 17 -21 31 -24 73 -15 162 -43 174 -54 6
-7 27 -13 45 -13 22 0 36 -6 43 -20 6 -11 19 -20 28 -20 10 0 27 -7 38 -15 10
-8 27 -15 38 -15 10 0 26 -10 36 -22 10 -13 38 -29 64 -37 25 -7 46 -18 46
-25 0 -11 11 -18 76 -49 17 -8 35 -20 38 -26 4 -6 15 -11 25 -11 10 0 26 -9
36 -20 10 -11 28 -20 40 -20 12 0 30 -9 40 -20 10 -11 28 -20 40 -20 12 0 30
-9 39 -19 10 -11 31 -23 47 -26 16 -4 31 -11 34 -16 4 -5 14 -9 23 -9 9 0 28
-9 42 -20 14 -11 33 -20 43 -20 10 0 30 -11 45 -25 15 -14 35 -25 44 -25 16 0
103 -31 185 -66 17 -8 44 -14 60 -14 16 0 37 -6 48 -14 36 -25 144 -47 197
-40 43 6 50 4 54 -13 7 -27 110 -47 189 -38 42 6 59 4 65 -5 6 -10 24 -10 91
-1 150 22 149 22 149 41 0 16 8 18 63 17 63 -2 190 31 283 74 23 11 53 19 66
19 14 0 31 6 37 14 7 8 27 17 44 21 18 3 55 16 82 29 28 14 62 30 78 37 15 7
27 18 27 26 0 7 10 13 23 13 32 0 93 23 115 43 10 9 28 17 39 17 11 0 27 7 34
16 7 9 41 29 75 45 34 16 67 36 74 44 7 8 20 15 30 15 10 0 23 7 30 15 7 8 19
15 26 15 8 0 14 5 14 10 0 6 6 10 14 10 7 0 19 7 26 15 7 8 23 15 35 15 13 0
32 11 43 25 11 14 29 25 40 25 11 0 25 7 32 15 7 8 21 15 32 15 11 0 31 9 45
20 14 11 35 20 45 20 11 0 31 9 45 20 14 11 38 20 52 20 15 0 38 8 51 17 20
14 53 18 162 21 l138 4 0 49 c0 46 -2 49 -25 49 -20 0 -25 -5 -25 -25 0 -21
-5 -25 -30 -25 -28 0 -30 3 -30 35 0 31 3 35 25 35 20 0 25 5 25 25 0 18 -7
26 -25 31 -14 3 -25 11 -25 16 0 6 -11 19 -26 30 -20 16 -24 28 -22 57 4 44
25 50 196 50 l112 1 0 40 c0 30 -5 42 -17 46 -10 3 -26 10 -35 15 -10 5 -24 9
-33 9 -8 0 -19 9 -25 20 -6 11 -16 20 -23 20 -7 0 -28 9 -48 19 -20 11 -58 22
-85 26 -27 4 -60 15 -74 24 -38 25 -545 23 -608 -2 -23 -9 -66 -17 -95 -17
-30 0 -70 -9 -96 -20 -24 -11 -57 -20 -75 -20 -17 -1 -49 -8 -71 -16 -22 -9
-60 -20 -85 -26 -25 -6 -54 -16 -65 -23 -11 -7 -34 -16 -52 -20 -17 -3 -48
-15 -69 -26 -21 -10 -44 -19 -52 -19 -8 0 -26 -7 -40 -15 -52 -28 -139 -65
-154 -65 -8 0 -23 -7 -34 -15 -10 -8 -26 -14 -34 -15 -8 0 -36 -10 -62 -22
-42 -21 -49 -28 -63 -75 -8 -28 -15 -58 -15 -67 0 -9 -6 -16 -13 -16 -8 0 -40
-25 -72 -55 -31 -30 -64 -55 -72 -55 -8 0 -26 -9 -40 -20 -17 -13 -41 -20 -69
-20 -24 0 -44 -4 -44 -10 0 -19 -39 -10 -66 15 -15 14 -33 25 -40 25 -15 0
-38 17 -97 73 -22 20 -42 37 -46 37 -3 0 -12 15 -20 33 -38 91 -52 113 -83
129 -68 35 -131 58 -157 58 -15 0 -31 8 -38 19 -6 10 -27 21 -46 25 -19 4 -40
13 -47 21 -7 8 -18 15 -26 15 -7 0 -34 11 -60 25 -26 14 -56 25 -68 25 -12 1
-39 9 -61 20 -22 11 -51 20 -65 20 -14 0 -36 6 -50 13 -15 8 -47 17 -73 20
-26 4 -61 13 -77 22 -16 8 -48 15 -72 15 -24 0 -68 10 -98 21 -50 19 -79 21
-290 24 -129 1 -263 0 -296 -2z m1064 -375 c37 -47 24 -118 -23 -118 -66 0
-88 16 -82 58 10 58 76 95 105 60z m216 -40 c11 -58 -2 -78 -50 -78 l-33 0 -3
-77 -3 -78 -38 -9 c-64 -16 -88 17 -72 101 6 31 8 33 47 33 l40 0 -6 44 c-13
83 11 118 79 113 27 -2 31 -6 39 -49z m1356 28 c0 -14 5 -28 10 -31 34 -21 -4
-74 -53 -75 -67 0 -91 58 -45 107 31 33 88 33 88 -1z m189 10 c7 -8 11 -36 9
-63 l-3 -48 -55 0 -55 0 -3 42 c-5 67 70 114 107 69z m-349 -182 c18 -46 12
-74 -25 -110 -21 -20 -35 -43 -35 -58 0 -25 -16 -36 -54 -36 -12 0 -29 -9 -39
-20 -9 -11 -23 -20 -31 -20 -7 0 -19 -7 -26 -15 -7 -8 -28 -17 -49 -21 -20 -3
-46 -13 -59 -20 -32 -21 -313 -56 -387 -48 -98 9 -254 33 -265 39 -18 11 -11
84 10 105 23 23 80 28 80 6 0 -30 283 -40 420 -14 90 17 184 48 203 67 6 6 19
11 29 11 11 0 18 7 18 20 0 23 66 90 90 90 9 0 27 11 40 25 31 33 67 33 80 -1z
m247 4 c65 -61 -15 -140 -88 -87 -35 24 -37 54 -7 86 27 29 65 29 95 1z M3445
1894 c-27 -8 -79 -21 -114 -30 -35 -8 -68 -17 -75 -21 -6 -4 -38 -10 -71 -14
-33 -4 -61 -12 -63 -18 -5 -14 -172 -15 -172 -1 0 6 -13 10 -29 10 -16 0 -44
6 -63 14 -19 8 -59 18 -89 22 -30 4 -76 15 -102 25 -27 11 -73 19 -107 19
l-60 0 0 -31 c0 -18 -9 -47 -21 -65 -41 -67 6 -130 56 -74 10 11 30 20 44 20
l26 0 0 -154 c0 -150 1 -156 24 -180 34 -37 67 -34 75 5 5 27 9 30 38 27 30
-3 33 -7 36 -38 2 -19 9 -42 17 -50 7 -8 16 -29 20 -47 3 -17 13 -37 21 -44 8
-6 14 -17 14 -23 0 -19 131 -146 158 -153 44 -11 140 52 176 115 6 11 25 40
42 64 16 24 36 66 44 93 17 63 35 85 72 85 21 0 31 -6 35 -20 8 -29 44 -25 68
8 18 24 20 43 20 175 0 142 1 147 21 147 11 0 31 -11 44 -25 13 -14 34 -25 48
-25 23 0 24 2 18 58 -13 141 -13 142 -60 141 -22 0 -63 -7 -91 -15z"/>
</g>
<g transform="translate(0.000000,664.000000) scale(0.100000,-0.100000)"
fill="#efd7ab" stroke="none">
<path d="M4290 6035 c0 -20 5 -25 25 -25 20 0 25 5 25 25 0 20 -5 25 -25 25
-20 0 -25 -5 -25 -25z M760 3125 c0 -20 5 -25 25 -25 20 0 25 5 25 25 0 20 -5
25 -25 25 -20 0 -25 -5 -25 -25z M5270 3080 l0 -70 55 0 c63 0 68 10 36 73
-28 54 -40 67 -67 67 -23 0 -24 -3 -24 -70z M780 3050 c0 -28 2 -30 40 -30 38
0 40 2 40 30 0 28 -2 30 -40 30 -38 0 -40 -2 -40 -30z M2355 3010 c7 -49 6
-50 -18 -50 -29 0 -57 -33 -57 -67 0 -25 8 -27 83 -17 42 6 46 9 49 37 3 26
10 33 46 46 57 21 59 54 5 71 -21 7 -42 16 -47 21 -6 5 -23 9 -39 9 l-29 0 7
-50z M3710 2925 c0 -43 1 -45 30 -45 29 0 30 2 30 45 0 43 -1 45 -30 45 -29 0
-30 -2 -30 -45z M3900 2925 c0 -43 1 -45 30 -45 29 0 30 2 30 45 0 43 -1 45
-30 45 -29 0 -30 -2 -30 -45z M3970 2855 c0 -22 4 -25 35 -25 31 0 35 3 35 25
0 22 -4 25 -35 25 -31 0 -35 -3 -35 -25z M5076 2864 c-3 -9 -6 -31 -6 -49 0
-31 -2 -33 -45 -39 -25 -4 -65 -4 -90 -1 -42 7 -44 6 -51 -19 -5 -22 -12 -26
-41 -26 -26 0 -36 -5 -40 -20 -4 -17 -14 -20 -58 -20 -38 0 -58 -5 -75 -20
-13 -11 -27 -20 -32 -20 -4 0 -8 -18 -8 -40 0 -37 2 -40 29 -40 15 0 40 9 54
20 14 11 34 20 44 20 10 0 28 7 40 15 12 8 45 20 75 26 29 6 65 18 80 25 19
10 66 14 158 14 122 0 130 1 130 19 0 80 -141 214 -164 155z M2410 2825 c0
-45 0 -45 35 -45 35 0 35 0 35 45 0 45 0 45 -35 45 -35 0 -35 0 -35 -45z M895
2825 c-37 -36 -34 -75 5 -75 19 0 30 5 30 14 0 7 9 16 20 19 15 4 20 14 20 36
0 40 -39 43 -75 6z M3870 2755 c0 -31 3 -35 25 -35 22 0 25 4 25 35 0 31 -3
35 -25 35 -22 0 -25 -4 -25 -35z M1050 2730 c0 -36 3 -40 25 -40 23 0 25 4 25
40 0 36 -2 40 -25 40 -22 0 -25 -4 -25 -40z M1310 2650 c0 -32 4 -40 19 -40
10 0 30 -9 44 -20 14 -11 32 -20 40 -20 8 0 26 -9 40 -20 43 -34 67 -27 67 20
0 33 -4 40 -19 40 -10 0 -21 9 -24 20 -4 17 -14 20 -61 20 -49 0 -56 2 -56 20
0 15 -7 20 -25 20 -22 0 -25 -4 -25 -40z M3127 2653 c-12 -13 -38 -19 -92 -21
l-75 -4 0 -38 0 -37 68 -6 c37 -4 91 -7 120 -7 l52 0 0 65 c0 64 0 65 -28 65
-15 0 -36 -8 -45 -17z M4520 2580 c0 -25 4 -30 25 -30 21 0 25 5 25 30 0 25
-4 30 -25 30 -21 0 -25 -5 -25 -30z M2680 2520 c0 -36 3 -40 25 -40 23 0 25 4
25 40 0 36 -2 40 -25 40 -22 0 -25 -4 -25 -40z M1580 2505 c0 -21 5 -25 30
-25 25 0 30 4 30 25 0 21 -5 25 -30 25 -25 0 -30 -4 -30 -25z M3483 2513 c-15
-6 -18 -53 -3 -53 6 0 10 -9 10 -20 0 -17 7 -20 40 -20 39 0 40 1 40 33 -1 55
-38 80 -87 60z M4300 2470 c-7 -13 -21 -20 -38 -20 -29 0 -82 -44 -82 -68 0
-7 -11 -12 -25 -12 -22 0 -25 -4 -25 -40 0 -47 32 -56 65 -20 10 11 25 20 34
20 9 0 28 8 41 17 14 10 43 28 65 39 35 19 40 26 43 63 3 41 3 41 -32 41 -25
0 -38 -6 -46 -20z M1770 2407 c0 -34 41 -77 73 -77 8 0 25 -8 38 -18 32 -25
111 -62 131 -62 9 0 18 -7 22 -15 3 -8 17 -15 31 -15 21 0 25 5 25 30 0 25 -4
30 -25 30 -20 0 -25 5 -25 25 0 22 -4 25 -34 25 -25 0 -35 5 -39 20 -4 15 -14
20 -40 20 -26 0 -36 5 -40 20 -3 13 -17 22 -36 26 -17 4 -31 10 -31 15 0 5
-11 9 -25 9 -22 0 -25 -4 -25 -33z M2680 2345 c0 -40 2 -45 23 -45 32 0 47 18
47 57 0 31 -2 33 -35 33 -35 0 -35 0 -35 -45z M3340 2325 c0 -20 5 -25 25 -25
20 0 25 5 25 25 0 20 -5 25 -25 25 -20 0 -25 -5 -25 -25z M3977 2283 c-17 -16
-7 -73 12 -73 38 0 51 11 51 46 0 31 -3 34 -28 34 -16 0 -32 -3 -35 -7z M3670
2130 c0 -38 2 -40 30 -40 28 0 30 2 30 40 0 38 -2 40 -30 40 -28 0 -30 -2 -30
-40z M2973 2003 c-19 -4 -23 -11 -23 -39 l0 -34 85 0 85 0 0 34 c0 26 -5 35
-22 40 -25 6 -90 6 -125 -1z M2550 1880 l0 -40 40 0 c39 0 40 1 40 34 0 26 -5
35 -22 40 -50 13 -58 8 -58 -34z M2752 1833 c3 -33 7 -38 31 -41 26 -3 27 -1
27 37 0 39 -1 41 -31 41 -29 0 -30 -2 -27 -37z M3243 1863 c-28 -11 -14 -50
18 -57 68 -13 79 -9 79 29 0 35 0 35 -42 34 -24 0 -49 -3 -55 -6z M2860 1807
c0 -57 1 -57 161 -57 l129 0 0 39 0 38 -107 7 c-60 3 -125 9 -145 12 l-38 6 0
-45z M3460 1735 c0 -20 5 -25 25 -25 20 0 25 5 25 25 0 20 -5 25 -25 25 -20 0
-25 -5 -25 -25z M2450 1685 c0 -20 5 -25 25 -25 20 0 25 5 25 25 0 20 -5 25
-25 25 -20 0 -25 -5 -25 -25z M3570 1685 c0 -20 5 -25 25 -25 20 0 25 5 25 25
0 20 -5 25 -25 25 -20 0 -25 -5 -25 -25z M3370 1385 c0 -21 5 -25 30 -25 25 0
30 4 30 25 0 21 -5 25 -30 25 -25 0 -30 -4 -30 -25z M310 1215 c0 -20 5 -25
25 -25 20 0 25 5 25 25 0 20 -5 25 -25 25 -20 0 -25 -5 -25 -25z"/>
</g>
<g transform="translate(0.000000,664.000000) scale(0.100000,-0.100000)"
fill="#e9a434" stroke="none">
<path d="M4180 5925 c0 -20 5 -25 25 -25 14 0 25 -4 25 -10 0 -5 11 -10 25
-10 21 0 25 5 25 29 0 25 -4 29 -37 35 -58 9 -63 8 -63 -19z M3910 3245 c0
-22 4 -25 35 -25 31 0 35 3 35 25 0 22 -4 25 -35 25 -31 0 -35 -3 -35 -25z
M5204 3234 c-8 -41 4 -54 49 -54 20 0 27 5 27 20 0 70 -64 99 -76 34z M810
3225 c0 -32 2 -35 30 -35 23 0 30 5 30 19 0 35 -12 51 -36 51 -21 0 -24 -5
-24 -35z M2522 1698 c-27 -27 -14 -58 23 -58 33 0 35 2 35 35 0 37 -31 50 -58
23z M3490 1670 l0 -40 40 0 c35 0 40 3 40 23 0 29 -29 57 -58 57 -19 0 -22 -6
-22 -40z M3307 1413 c-4 -3 -7 -19 -7 -35 0 -23 4 -28 25 -28 20 0 25 -5 25
-25 0 -26 19 -32 54 -19 27 10 20 54 -8 54 -18 0 -25 7 -29 30 -6 29 -41 43
-60 23z M2710 1380 c0 -27 3 -30 30 -30 27 0 30 3 30 30 0 27 -3 30 -30 30
-27 0 -30 -3 -30 -30z M2112 1258 c-27 -27 -14 -58 23 -58 33 0 35 2 35 35 0
37 -31 50 -58 23z M3900 1220 l0 -40 40 0 c35 0 40 3 40 23 0 29 -29 57 -58
57 -19 0 -22 -6 -22 -40z M870 1200 c0 -25 4 -30 25 -30 21 0 25 5 25 30 0 25
-4 30 -25 30 -21 0 -25 -5 -25 -30z M2890 1086 c0 -58 13 -66 117 -73 105 -7
183 18 183 57 0 49 -53 65 -97 30 -37 -29 -94 -26 -131 5 -48 40 -72 34 -72
-19z M800 1035 c0 -20 5 -25 25 -25 20 0 25 5 25 25 0 20 -5 25 -25 25 -20 0
-25 -5 -25 -25z M2340 695 c0 -20 5 -25 25 -25 20 0 25 5 25 25 0 20 -5 25
-25 25 -20 0 -25 -5 -25 -25z M720 685 c0 -26 25 -45 59 -45 17 0 21 6 21 35
0 34 -1 35 -40 35 -36 0 -40 -3 -40 -25z M2422 557 c-40 -43 -30 -67 28 -67
l50 0 0 45 c0 43 -1 45 -28 45 -17 0 -37 -10 -50 -23z M3580 535 l0 -45 45 0
c40 0 45 2 45 23 0 29 -39 67 -68 67 -19 0 -22 -5 -22 -45z M4040 530 c0 -39
1 -40 35 -40 29 0 35 4 35 21 0 34 -19 59 -45 59 -22 0 -25 -4 -25 -40z"/>
</g>
<g transform="translate(0.000000,664.000000) scale(0.100000,-0.100000)"
fill="#f49b0e" stroke="none">
<path d="M4423 5833 c-19 -4 -23 -11 -23 -41 0 -29 -5 -39 -22 -47 -24 -10
-40 -75 -19 -75 6 0 11 -9 11 -20 0 -18 7 -20 65 -20 75 0 71 -10 59 133 -7
83 -7 82 -71 70z M1417 5753 c-23 -22 -6 -51 33 -58 49 -8 60 -2 60 36 0 28
-2 29 -43 29 -24 0 -47 -3 -50 -7z M1290 5669 c-68 -28 -90 -56 -90 -120 0
-56 1 -59 24 -59 19 0 25 6 28 27 2 18 10 29 23 31 30 6 45 22 45 48 0 14 8
25 20 29 13 4 20 15 20 31 0 27 -24 31 -70 13z M1740 5546 c0 -64 1 -66 25
-66 20 0 25 -5 25 -25 0 -22 -4 -25 -40 -25 -38 0 -40 2 -40 30 0 27 -3 30
-30 30 -27 0 -30 -3 -30 -30 0 -20 5 -30 15 -30 11 0 15 -12 15 -46 0 -74 33
-99 142 -107 96 -7 98 -5 98 60 0 26 -5 36 -20 40 -13 4 -20 14 -20 29 0 27
-46 124 -58 124 -5 0 -13 17 -18 38 -7 30 -14 38 -36 40 l-28 3 0 -65z M2085
5513 c4 -27 11 -50 16 -53 13 -9 39 -77 39 -105 0 -21 4 -25 31 -25 l32 0 -7
46 c-3 26 -6 60 -6 75 0 18 -5 29 -14 29 -16 0 -26 21 -26 56 0 21 -5 24 -36
24 l-36 0 7 -47z M3980 5535 c0 -8 -4 -15 -10 -15 -5 0 -10 -11 -10 -25 0 -19
5 -25 21 -25 37 0 59 19 59 50 0 27 -3 30 -30 30 -20 0 -30 -5 -30 -15z M4232
5360 c-25 -40 -16 -60 28 -60 22 0 40 -4 40 -10 0 -5 11 -10 24 -10 14 0 28 5
31 10 3 6 22 10 41 10 30 0 34 3 34 25 0 24 -2 25 -70 25 -56 0 -70 3 -70 15
0 22 -43 19 -58 -5z M4840 5332 c0 -43 14 -62 47 -62 21 0 23 4 23 50 l0 50
-35 0 c-34 0 -35 -1 -35 -38z M1455 5258 l-60 -61 2 -78 c1 -59 -2 -79 -13
-83 -8 -3 -14 -15 -14 -26 0 -11 -4 -20 -9 -20 -6 0 -11 -15 -13 -32 -2 -27
-8 -34 -28 -36 -68 -7 -90 -14 -90 -27 0 -10 -11 -15 -31 -15 -31 0 -31 0 -25
-42 4 -24 9 -68 12 -98 8 -98 10 -100 54 -100 l40 0 -6 74 -7 74 74 12 c75 12
132 39 143 65 3 9 18 15 36 15 28 0 30 -3 30 -35 0 -30 3 -35 23 -35 28 0 47
17 47 43 0 26 37 57 67 57 37 0 30 40 -12 69 -23 16 -35 31 -35 47 0 21 -5 24
-36 24 -33 0 -35 2 -32 28 2 21 10 29 36 37 17 5 32 15 32 22 0 7 9 13 20 13
16 0 20 7 20 36 0 41 -45 94 -79 94 -11 0 -25 9 -31 20 -19 35 -51 23 -115
-42z M4127 5293 c-4 -3 -7 -30 -7 -59 0 -47 -2 -53 -22 -56 -36 -5 -40 -78 -5
-78 40 0 52 -65 17 -90 -11 -8 -20 -24 -20 -36 0 -13 8 -24 20 -27 17 -4 20
-14 20 -70 0 -58 3 -66 25 -81 30 -20 62 -20 81 -1 9 8 29 15 45 15 28 0 29
-2 29 -45 0 -43 1 -45 29 -45 25 0 30 -4 33 -27 2 -23 9 -29 38 -33 l35 -5 -2
-87 -3 -87 38 -3 c37 -3 37 -3 40 -51 4 -62 -9 -77 -64 -77 -37 0 -44 -3 -44
-20 0 -17 -7 -20 -45 -20 -41 0 -45 -2 -45 -24 0 -18 6 -25 23 -28 16 -2 23
-11 25 -30 3 -27 2 -28 -42 -28 -42 0 -46 -2 -46 -24 0 -21 5 -25 38 -28 34
-3 37 -6 37 -33 0 -25 -4 -30 -27 -33 -20 -2 -28 1 -28 12 0 25 -40 19 -62 -9
-22 -28 -37 -30 -83 -14 -46 17 -85 5 -85 -26 0 -18 5 -25 19 -25 29 0 71 -39
71 -66 0 -13 5 -24 10 -24 6 0 10 -9 10 -19 0 -20 18 -31 53 -31 12 0 33 -9
47 -20 37 -29 80 -27 80 4 0 14 -4 28 -10 31 -5 3 -10 29 -10 56 0 49 1 50 28
47 22 -2 28 -9 30 -33 6 -47 18 -55 88 -55 l64 0 0 -30 c0 -20 -5 -30 -15 -30
-11 0 -15 -11 -15 -38 0 -45 -14 -62 -51 -62 -25 0 -27 -3 -33 -70 -4 -38 -11
-70 -16 -70 -5 0 -11 -13 -15 -30 -4 -16 -12 -30 -19 -30 -23 0 -56 -58 -56
-99 0 -36 3 -40 27 -43 22 -2 29 -9 33 -33 5 -29 7 -30 55 -30 42 0 52 3 60
23 5 12 15 22 22 22 6 0 13 10 15 23 2 15 11 23 29 25 25 3 27 7 32 72 8 99
27 130 77 130 36 0 40 3 40 25 0 22 4 25 34 25 21 0 36 -6 40 -15 3 -9 19 -15
41 -15 32 0 35 2 35 30 0 28 -3 30 -35 30 -30 0 -35 3 -35 24 0 15 -7 26 -20
29 -17 4 -20 14 -20 56 0 40 -3 51 -16 51 -9 0 -27 9 -41 20 -14 11 -32 20
-39 20 -7 0 -18 9 -24 20 -6 11 -17 20 -25 20 -10 0 -15 11 -15 36 0 21 -8 47
-20 61 -24 30 -26 81 -5 89 8 4 15 11 15 17 0 23 69 77 100 77 20 0 30 5 30
15 0 11 11 15 39 15 l39 0 5 48 c8 71 18 112 28 112 15 0 10 182 -6 210 -25
44 -19 68 18 72 29 3 32 6 35 41 3 36 2 37 -31 37 -26 0 -36 -5 -40 -20 -3
-14 -14 -20 -32 -20 -18 0 -29 6 -32 20 -4 16 -14 20 -48 20 -64 0 -66 7 -63
181 l3 154 68 9 c61 8 67 11 67 33 0 12 5 23 10 23 6 0 10 11 10 25 0 20 -5
25 -25 25 -14 0 -25 -4 -25 -10 0 -5 -29 -8 -67 -7 -66 2 -68 1 -73 -25 -7
-39 -50 -68 -99 -68 l-41 0 0 50 0 50 -89 0 c-50 0 -93 -4 -96 -10 -3 -5 -22
-10 -41 -10 -34 0 -34 0 -34 45 0 44 0 45 -33 45 -19 0 -37 -3 -40 -7z m273
-148 c0 -20 -5 -25 -25 -25 -20 0 -25 5 -25 25 0 20 5 25 25 25 20 0 25 -5 25
-25z m58 -367 c3 -26 1 -28 -32 -28 -33 0 -36 2 -36 31 0 28 2 30 33 27 27 -2
33 -8 35 -30z m-170 -815 c-5 -44 -58 -47 -58 -4 0 28 3 31 31 31 27 0 30 -3
27 -27z M3860 5255 c0 -30 3 -35 24 -35 24 0 36 16 36 51 0 14 -7 19 -30 19
-28 0 -30 -3 -30 -35z M2307 5083 c-32 -37 -33 -153 -1 -153 9 0 14 -11 14
-30 0 -28 -40 -75 -100 -117 -12 -9 -20 -25 -20 -44 0 -22 -4 -29 -20 -29 -11
0 -23 -7 -26 -15 -5 -11 -22 -15 -65 -15 -60 0 -89 -19 -89 -61 0 -9 -7 -19
-15 -23 -8 -3 -15 -15 -15 -26 0 -16 -7 -20 -30 -20 -28 0 -30 -3 -30 -35 0
-35 0 -35 -45 -35 l-45 0 0 -49 c0 -28 -4 -53 -10 -56 -20 -12 -11 -52 15 -63
16 -7 25 -20 25 -34 0 -13 7 -32 15 -42 15 -19 16 -19 110 3 91 23 95 25 95
51 0 17 -6 30 -17 33 -10 4 -36 13 -58 21 -22 9 -52 16 -67 16 -25 0 -28 4
-28 34 0 34 0 34 57 41 39 5 59 3 61 -4 2 -7 38 -11 98 -11 l94 0 0 30 0 30
75 0 75 0 0 51 c0 48 3 53 55 105 86 83 100 78 108 -42 8 -113 8 -114 53 -114
29 0 34 -3 34 -24 0 -33 -60 -96 -91 -96 -14 0 -31 -9 -39 -20 -11 -15 -26
-20 -62 -20 l-48 0 0 -34 c0 -19 -4 -38 -10 -41 -5 -3 -10 -23 -10 -45 0 -39
11 -50 50 -50 10 0 20 -6 23 -14 3 -8 25 -17 49 -21 23 -4 47 -13 53 -21 5 -7
21 -14 34 -16 36 -5 45 -27 37 -91 -6 -47 -11 -57 -27 -57 -14 0 -19 -7 -19
-25 0 -21 5 -25 30 -25 23 0 30 -5 30 -19 0 -17 8 -20 53 -23 48 -3 52 -5 55
-30 3 -24 0 -28 -22 -28 -21 0 -25 -5 -28 -32 -2 -24 -9 -34 -23 -37 -45 -8
-48 -68 -7 -103 19 -16 31 -38 35 -63 4 -22 14 -45 22 -52 25 -17 26 -154 3
-180 -22 -24 -24 -63 -3 -63 10 0 15 -10 15 -29 0 -31 5 -29 -102 -47 l-38 -6
0 41 0 42 -47 -3 c-48 -3 -48 -3 -51 -40 -3 -33 -7 -38 -28 -38 -20 0 -24 5
-24 30 0 25 -4 30 -25 30 -16 0 -25 -6 -25 -15 0 -8 -9 -15 -20 -15 -33 0 -27
-48 8 -61 15 -6 39 -18 55 -26 19 -10 41 -12 72 -7 36 5 46 3 51 -10 9 -23 51
-20 57 4 8 32 67 28 67 -4 0 -16 -7 -27 -20 -31 -31 -10 -27 -55 4 -55 14 0
28 -4 31 -10 12 -19 66 -12 72 10 3 11 13 20 21 20 9 0 34 6 57 14 135 46 147
48 203 42 31 -4 94 -9 140 -12 45 -4 82 -10 82 -15 0 -5 18 -12 40 -15 24 -4
40 -12 40 -20 0 -8 10 -14 25 -14 14 0 25 5 25 10 0 6 20 10 45 10 41 0 45 2
45 24 0 15 -7 26 -20 29 -17 4 -20 15 -22 103 l-3 99 -31 3 -32 3 -7 -85 c-6
-82 -8 -86 -31 -86 -23 0 -24 2 -24 86 0 113 -8 128 -67 119 -53 -8 -73 5 -73
46 0 28 2 29 50 29 49 0 50 1 50 30 0 29 1 30 50 30 47 0 50 2 50 25 0 15 6
25 14 25 20 0 27 27 20 80 l-6 48 -56 6 c-47 6 -58 4 -77 -14 -12 -11 -29 -20
-38 -20 -13 0 -17 -9 -17 -45 0 -41 -2 -45 -25 -45 -20 0 -25 5 -25 25 0 18 5
25 20 25 22 0 25 16 14 83 l-7 37 -153 0 -154 0 0 -65 c0 -63 -1 -65 -25 -65
-14 0 -34 9 -45 20 -14 14 -33 20 -61 20 -47 0 -45 -12 -18 118 12 53 17 62
35 62 25 0 34 -17 34 -66 0 -31 2 -34 31 -34 l32 0 -6 75 -7 75 74 0 c49 0 77
4 84 13 7 8 13 72 14 158 l3 144 228 3 227 2 0 -64 c0 -36 5 -68 11 -71 7 -5
8 -25 4 -56 l-7 -49 35 0 c19 0 40 -7 47 -15 7 -8 21 -15 31 -15 14 0 19 -7
19 -25 0 -19 5 -25 21 -25 32 0 59 19 59 40 0 16 7 20 33 20 71 0 77 6 77 76
l0 64 -30 0 c-29 0 -30 2 -30 45 0 52 -19 59 -78 29 -31 -15 -32 -18 -32 -75
l0 -59 -31 0 c-42 0 -58 24 -59 87 0 28 -4 55 -10 58 -17 11 -13 125 5 125 9
0 15 9 15 25 0 16 -6 25 -15 25 -12 0 -15 17 -15 95 0 95 0 95 25 95 25 0 25
-1 25 -85 0 -69 3 -85 15 -85 8 0 15 -7 15 -16 0 -35 177 8 187 46 3 13 14 20
29 20 20 0 24 5 24 30 0 28 2 30 40 30 33 0 40 3 40 19 0 23 45 41 101 41 l38
0 -2 88 c-1 95 -15 122 -64 122 -18 0 -23 -5 -23 -25 0 -20 -5 -25 -25 -25
-22 0 -25 4 -25 40 0 22 -4 40 -10 40 -5 0 -10 9 -10 19 0 11 -9 23 -22 27
-25 7 -37 16 -84 61 -31 28 -34 36 -34 87 l0 56 -40 0 c-32 0 -40 -4 -40 -19
0 -23 -142 -39 -200 -21 -65 19 -128 13 -132 -12 -3 -22 -6 -23 -95 -21 l-93
3 0 -25 c0 -29 -43 -37 -54 -9 -9 24 -7 54 4 54 6 0 10 18 10 40 l0 40 -40 0
c-37 0 -40 -2 -40 -27 0 -53 -10 -71 -43 -76 -18 -3 -54 -10 -82 -16 -27 -5
-71 -10 -97 -10 -29 -1 -48 -6 -48 -12 0 -17 -32 -38 -57 -39 -21 0 -23 5 -23
45 0 43 -1 45 -29 45 -17 0 -33 5 -37 11 -5 8 -38 10 -112 6 l-104 -6 6 30 c3
16 9 41 12 57 4 22 1 29 -18 37 -13 6 -27 20 -33 33 -12 27 -46 29 -68 5z
m1228 -237 c8 -8 15 -24 15 -36 0 -20 -4 -21 -92 -18 l-93 3 -3 28 c-3 26 -2
27 42 27 28 0 46 5 46 11 0 16 66 4 85 -15z m-921 -2 c17 -43 7 -64 -29 -64
-30 0 -35 3 -35 24 0 39 11 56 35 56 13 0 26 -7 29 -16z m1334 -291 c-3 -26
-7 -28 -49 -31 -37 -2 -48 -7 -52 -23 -9 -34 -57 -26 -57 11 0 29 2 30 44 30
35 0 45 4 49 20 4 15 14 20 37 20 28 0 31 -3 28 -27z m-1748 -43 c0 -28 -3
-30 -35 -30 -32 0 -35 2 -35 30 0 28 3 30 35 30 32 0 35 -2 35 -30z m-130 -15
c0 -20 -5 -25 -25 -25 -20 0 -25 5 -25 25 0 20 5 25 25 25 20 0 25 -5 25 -25z
m1665 -45 c3 -5 17 -10 31 -10 19 0 24 -5 24 -24 0 -22 -5 -25 -55 -31 -37 -5
-55 -12 -55 -21 0 -9 -11 -14 -30 -14 -25 0 -30 4 -30 25 0 21 5 25 30 25 27
0 30 3 30 30 0 25 4 30 24 30 14 0 28 -4 31 -10z m-997 -397 c-3 -24 -8 -28
-33 -28 -25 0 -30 4 -33 28 -3 25 -1 27 33 27 34 0 36 -2 33 -27z m72 -98 c0
-20 -5 -25 -25 -25 -20 0 -25 5 -25 25 0 20 5 25 25 25 20 0 25 -5 25 -25z
m-110 -20 c0 -20 -5 -25 -25 -25 -20 0 -25 5 -25 25 0 20 5 25 25 25 20 0 25
-5 25 -25z m980 0 c0 -20 -5 -25 -25 -25 -20 0 -25 5 -25 25 0 20 5 25 25 25
20 0 25 -5 25 -25z m-830 -570 c0 -20 -5 -25 -25 -25 -20 0 -25 5 -25 25 0 20
5 25 25 25 20 0 25 -5 25 -25z M4000 4920 c0 -25 4 -30 25 -30 21 0 25 5 25
30 0 25 -4 30 -25 30 -21 0 -25 -5 -25 -30z M1880 4845 c0 -30 3 -35 24 -35
24 0 36 16 36 51 0 14 -7 19 -30 19 -28 0 -30 -3 -30 -35z M1722 4723 c3 -25
7 -28 38 -28 31 0 35 3 38 28 3 26 1 27 -38 27 -39 0 -41 -1 -38 -27z M1344
4436 c-6 -24 -29 -36 -71 -36 -19 0 -23 -6 -23 -30 0 -20 5 -30 15 -30 11 0
15 -12 15 -47 0 -53 6 -66 33 -76 13 -5 17 -18 17 -62 l0 -55 45 0 c41 0 45 2
45 24 0 18 7 25 31 30 51 10 59 8 59 -19 0 -27 -25 -45 -64 -45 -23 0 -26 -4
-26 -35 0 -19 5 -35 10 -35 6 0 10 -11 10 -25 0 -22 -4 -25 -40 -25 -29 0 -40
-4 -40 -15 0 -8 -6 -15 -14 -15 -7 0 -19 -13 -26 -30 -7 -16 -19 -30 -26 -30
-8 0 -16 -11 -20 -25 -3 -14 -12 -25 -20 -25 -19 0 -32 -28 -40 -87 -6 -45 -4
-52 15 -62 17 -9 21 -21 21 -57 l0 -46 -32 6 c-18 4 -54 9 -80 12 l-47 6 -3
-32 c-2 -25 -11 -37 -37 -51 -41 -22 -51 -35 -51 -70 0 -29 -24 -55 -55 -61
-13 -2 -21 -12 -23 -29 l-3 -25 93 1 c190 3 188 3 188 25 0 17 7 20 53 20 76
0 97 8 97 36 0 22 -4 24 -45 24 -42 0 -45 2 -45 26 l0 27 90 -7 90 -8 0 26 c0
42 80 49 118 9 15 -17 37 -33 50 -37 16 -5 22 -15 22 -37 0 -26 3 -29 30 -29
28 0 30 -2 30 -40 0 -35 3 -40 24 -40 15 0 26 -7 29 -20 5 -18 14 -20 91 -20
83 0 86 1 86 23 -1 25 -68 77 -100 77 -10 0 -30 11 -44 25 -14 14 -32 25 -41
25 -10 0 -15 10 -15 34 0 28 -4 35 -22 38 -20 3 -23 10 -26 57 -2 32 -10 60
-19 69 -12 13 -14 29 -9 84 4 43 2 68 -4 68 -5 0 -10 14 -10 30 l0 30 86 0 86
0 -7 50 c-6 46 -5 50 14 50 28 0 28 40 1 65 -15 14 -20 31 -20 71 0 67 -16 84
-80 84 -72 0 -80 6 -80 54 0 47 -13 66 -47 66 -18 0 -25 -7 -30 -31 -6 -31 -7
-31 -51 -25 -81 11 -89 22 -97 131 -7 91 -8 95 -31 95 -17 0 -25 -7 -30 -24z
m377 -338 c23 -28 25 -74 3 -82 -30 -11 -54 -6 -54 12 0 9 -3 34 -6 55 -6 33
-5 37 16 37 12 0 30 -10 41 -22z m-61 -123 c0 -35 0 -35 -45 -35 -43 0 -45 1
-45 29 0 30 10 36 68 40 19 1 22 -4 22 -34z m-90 -75 c0 -28 -3 -30 -35 -30
-32 0 -35 2 -35 30 0 28 3 30 35 30 32 0 35 -2 35 -30z m30 -285 c0 -20 -5
-25 -25 -25 -20 0 -25 5 -25 25 0 20 5 25 25 25 20 0 25 -5 25 -25z m-432
-152 c-4 -39 -58 -48 -58 -10 0 30 7 37 37 37 21 0 24 -4 21 -27z M4390 4395
c0 -21 5 -25 30 -25 25 0 30 4 30 25 0 21 -5 25 -30 25 -25 0 -30 -4 -30 -25z
M4220 4270 c0 -28 30 -60 57 -60 34 0 34 65 1 74 -42 11 -58 7 -58 -14z M2118
3993 c-13 -3 -18 -14 -18 -38 l0 -33 104 5 c104 6 104 6 108 -18 2 -20 9 -24
38 -24 32 0 35 3 38 33 3 31 2 32 -32 32 -29 0 -36 4 -36 19 0 10 -7 22 -16
25 -18 7 -160 6 -186 -1z M1840 3965 c0 -20 5 -25 25 -25 20 0 25 5 25 25 0
20 -5 25 -25 25 -20 0 -25 -5 -25 -25z M3146 3809 c-10 -51 -8 -59 19 -59 18
0 25 -5 25 -20 0 -16 7 -20 33 -20 17 0 49 -3 70 -6 36 -6 37 -6 37 24 0 26
-4 31 -27 34 -23 2 -29 9 -33 38 -5 35 -5 35 -61 38 -56 3 -56 3 -63 -29z
M3408 3703 c-11 -3 -18 -14 -18 -29 0 -25 14 -29 58 -18 15 4 22 14 22 30 0
24 -17 29 -62 17z M4900 3520 c0 -16 5 -30 10 -30 6 0 10 -18 10 -39 l0 -39
65 -7 c36 -4 65 -11 65 -16 0 -5 14 -9 30 -9 27 0 30 3 30 30 0 23 -5 30 -19
30 -11 0 -23 5 -26 10 -3 6 -20 10 -37 10 -21 0 -31 6 -35 20 -3 11 -9 20 -13
20 -4 0 -11 11 -14 25 -10 40 -66 36 -66 -5z M4780 3405 c0 -14 6 -25 13 -25
6 0 29 -3 50 -6 36 -6 37 -6 37 25 0 31 -1 31 -50 31 -47 0 -50 -2 -50 -25z
M1542 3406 c-27 -8 -32 -15 -30 -36 3 -23 8 -25 56 -28 l52 -3 0 40 c0 46 -11
49 -78 27z M4710 3375 c0 -20 5 -25 25 -25 20 0 25 5 25 25 0 20 -5 25 -25 25
-20 0 -25 -5 -25 -25z M4212 3343 l3 -38 50 0 c47 0 50 2 53 28 3 24 0 27 -27
27 -17 0 -31 5 -31 10 0 6 -12 10 -26 10 -23 0 -25 -3 -22 -37z M3610 3205 c0
-28 61 -64 109 -65 22 0 23 3 18 37 -8 45 -19 53 -79 53 -45 0 -48 -2 -48 -25z
M2315 1793 c3 -21 9 -66 12 -100 4 -58 7 -63 28 -63 21 0 24 6 30 69 10 104 2
131 -42 131 l-35 0 7 -37z M3690 1665 c0 -8 -9 -15 -20 -15 -13 0 -20 -7 -20
-20 0 -16 -7 -20 -35 -20 -39 0 -55 -23 -55 -81 0 -17 -6 -42 -14 -57 -24 -47
-29 -94 -12 -127 18 -34 21 -85 6 -85 -5 0 -10 -13 -10 -30 0 -26 4 -30 28
-30 19 -1 33 -10 47 -33 18 -28 27 -32 69 -35 l48 -3 -7 65 c-6 57 -5 66 8 66
27 0 40 38 32 96 -8 65 1 114 21 114 10 0 14 13 14 44 0 39 -3 45 -22 48 -20
3 -23 10 -26 61 -3 53 -5 57 -27 57 -16 0 -25 -6 -25 -15z M2372 1556 c-7 -35
-12 -100 -12 -145 0 -80 0 -81 -25 -81 -23 0 -25 -3 -25 -49 0 -72 6 -81 51
-81 32 0 39 -3 39 -20 0 -25 45 -28 54 -4 12 32 6 54 -14 54 -16 0 -20 7 -20
30 0 27 3 30 30 30 20 0 30 -5 30 -15 0 -9 9 -15 25 -15 14 0 25 5 25 10 0 6
14 10 30 10 41 0 40 31 -2 69 -32 28 -32 29 -33 125 0 107 -5 116 -62 116 -23
0 -33 5 -33 15 0 9 -9 15 -23 15 -21 0 -25 -7 -35 -64z M1548 1473 c-10 -2
-18 -9 -18 -14 0 -5 -16 -9 -36 -9 -41 0 -74 -15 -74 -34 0 -7 -13 -16 -30
-19 -16 -4 -30 -13 -30 -20 0 -14 -52 -57 -69 -57 -5 0 -13 -9 -16 -20 -3 -11
-13 -20 -22 -20 -12 0 -14 -9 -8 -50 8 -56 7 -56 -67 -44 -24 4 -38 13 -41 25
-4 16 -15 19 -56 19 l-51 0 0 -45 0 -45 -43 0 c-42 0 -43 -1 -56 -45 -11 -37
-17 -45 -37 -45 -19 0 -24 -5 -24 -24 0 -29 70 -62 154 -72 67 -8 72 -13 79
-88 8 -85 0 -116 -30 -116 -21 0 -24 -4 -21 -27 5 -41 88 -49 88 -9 0 22 4 26
30 26 29 0 30 -2 30 -45 0 -43 1 -45 30 -45 25 0 30 -4 30 -25 0 -24 3 -25 59
-25 68 0 91 6 91 26 0 8 4 14 9 14 5 0 12 20 15 45 7 41 10 45 35 45 71 0 89
10 96 52 9 49 -1 58 -67 58 -47 0 -48 1 -48 30 0 28 2 30 39 30 22 0 44 6 51
15 7 8 23 15 36 15 17 0 24 6 24 20 0 16 7 20 38 20 58 0 82 -10 82 -32 0 -18
5 -20 38 -14 20 3 45 6 55 6 14 0 17 9 17 44 0 53 8 76 25 76 17 0 29 84 20
144 -7 42 -6 46 14 46 11 0 21 5 21 10 0 6 9 10 20 10 26 0 26 24 0 78 -14 28
-27 42 -40 42 -17 0 -20 7 -20 50 0 47 -2 50 -25 50 -22 0 -25 -4 -25 -35 l0
-35 -55 0 -55 0 0 35 0 35 -72 -1 c-40 -1 -81 -3 -90 -6z m-292 -398 c11 -44
-1 -55 -56 -55 l-51 0 3 32 c5 50 92 69 104 23z m154 -285 c0 -25 -4 -30 -25
-30 -21 0 -25 5 -25 30 0 25 4 30 25 30 21 0 25 -5 25 -30z M2700 1250 c0 -15
-7 -20 -25 -20 -26 0 -37 -41 -15 -55 14 -9 12 -75 -2 -79 -64 -17 -73 -23
-76 -46 -3 -32 54 -60 121 -60 l47 0 0 40 c0 22 -4 40 -10 40 -6 0 -10 27 -10
60 0 57 1 60 25 60 31 0 35 38 7 63 -26 24 -62 22 -62 -3z M2073 1168 c-16
-21 -34 -118 -36 -188 l-2 -65 38 -3 c34 -3 37 -6 37 -33 0 -19 -5 -29 -15
-29 -10 0 -15 -10 -15 -30 0 -29 2 -30 45 -30 34 0 45 4 45 16 0 13 9 14 55 9
55 -7 55 -7 55 20 0 18 -6 28 -20 32 -14 4 -20 14 -20 33 0 16 -7 35 -15 44
-8 8 -15 24 -15 35 0 18 -6 21 -45 21 -43 0 -45 1 -45 30 0 25 4 30 25 30 29
0 34 32 14 89 -9 26 -16 31 -44 31 -18 0 -37 -6 -42 -12z M3886 1064 c-14 -38
-7 -64 19 -64 19 0 25 -5 25 -22 1 -32 23 -58 49 -58 18 0 21 6 21 45 0 41 -2
45 -25 45 -22 0 -25 4 -25 35 0 32 -3 35 -29 35 -17 0 -31 -6 -35 -16z M3320
1022 c0 -15 -4 -32 -9 -37 -5 -6 -11 -23 -13 -40 -2 -20 -9 -31 -23 -34 -11
-2 -24 -9 -30 -17 -6 -7 -34 -14 -65 -16 l-55 -3 -3 -101 -3 -100 93 -14 c112
-16 148 -41 148 -102 l0 -38 64 0 63 0 7 61 c11 108 9 129 -14 129 -15 0 -20
7 -20 24 0 23 4 25 53 28 48 3 52 5 55 31 3 23 0 27 -21 27 -13 0 -38 7 -56
16 -32 16 -32 17 -26 65 5 33 3 49 -4 49 -6 0 -11 11 -11 25 0 14 5 25 10 25
6 0 10 11 10 25 0 24 -2 25 -75 25 l-75 0 0 -28z m60 -217 c0 -20 -5 -25 -25
-25 -20 0 -25 5 -25 25 0 20 5 25 25 25 20 0 25 -5 25 -25z M2440 895 c0 -15
6 -25 14 -25 8 0 17 -15 20 -35 4 -19 13 -35 20 -35 8 0 16 -14 20 -31 4 -19
13 -33 26 -36 11 -3 20 -9 20 -14 0 -5 11 -9 25 -9 17 0 25 -5 25 -18 0 -28
21 -42 63 -42 37 0 38 1 35 33 -2 24 -8 33 -25 35 -13 2 -23 7 -23 12 0 17
-86 100 -103 100 -9 0 -17 8 -17 18 -1 21 -23 52 -39 52 -6 0 -11 5 -11 10 0
6 -11 10 -25 10 -20 0 -25 -5 -25 -25z M2770 841 c0 -17 5 -31 11 -31 6 0 24
-13 39 -30 24 -26 35 -30 79 -30 l51 0 0 35 c0 24 -5 35 -15 35 -8 0 -15 9
-15 20 0 15 -7 20 -29 20 -15 0 -49 3 -75 6 l-46 7 0 -32z M2161 703 c0 -84
17 -127 52 -131 25 -3 27 -1 27 32 0 34 2 36 35 36 l35 0 0 60 0 60 -75 0 -75
0 1 -57z M2890 675 c0 -21 5 -25 30 -25 25 0 30 4 30 25 0 21 -5 25 -30 25
-25 0 -30 -4 -30 -25z M850 664 c0 -43 42 -74 101 -74 48 0 49 1 49 30 0 27
-3 30 -30 30 -23 0 -30 4 -30 20 0 17 -7 20 -45 20 -42 0 -45 -2 -45 -26z
M2685 603 c-151 -4 -175 -12 -175 -60 l0 -23 183 2 182 3 0 40 c0 46 19 43
-190 38z"/>
</g>
<g transform="translate(0.000000,664.000000) scale(0.100000,-0.100000)"
fill="#eb9b16" stroke="none">
<path d="M4177 5893 c-4 -3 -7 -17 -7 -30 0 -19 5 -23 30 -23 27 0 30 3 30 30
0 25 -4 30 -23 30 -13 0 -27 -3 -30 -7z M4490 5780 c0 -25 4 -30 25 -30 21 0
25 5 25 30 0 25 -4 30 -25 30 -21 0 -25 -5 -25 -30z M4500 5717 c0 -31 18 -47
52 -47 31 0 40 34 16 58 -22 22 -68 15 -68 -11z M2040 5625 c0 -18 -5 -25 -20
-25 -23 0 -28 -37 -10 -71 15 -26 60 -26 60 1 0 10 9 24 20 30 23 12 27 59 8
78 -23 23 -58 15 -58 -13z M4650 5595 c0 -21 5 -25 30 -25 25 0 30 4 30 25 0
21 -5 25 -30 25 -25 0 -30 -4 -30 -25z M1607 5573 c-13 -12 -7 -51 9 -57 46
-18 66 2 48 48 -6 16 -45 22 -57 9z M4760 5535 c0 -31 3 -35 25 -35 22 0 25 4
25 35 0 31 -3 35 -25 35 -22 0 -25 -4 -25 -35z M3883 5480 c-46 -54 -45 -90 2
-90 24 0 39 6 47 20 8 12 24 20 40 20 23 0 28 4 28 25 0 14 -4 25 -10 25 -5 0
-10 9 -10 20 0 38 -60 26 -97 -20z M4830 5465 c0 -22 4 -25 35 -25 31 0 35 3
35 25 0 22 -4 25 -35 25 -31 0 -35 -3 -35 -25z M3753 5298 c-7 -13 -19 -37
-27 -55 -9 -17 -20 -34 -26 -38 -5 -3 -10 -17 -10 -31 0 -21 5 -24 35 -24 28
0 35 4 35 20 0 13 7 20 20 20 15 0 20 7 20 29 0 21 6 30 21 34 16 4 20 12 17
34 -4 39 -66 47 -85 11z M1937 5194 c-4 -4 -7 -18 -7 -31 0 -20 5 -23 36 -23
33 0 35 2 32 28 -3 27 -43 44 -61 26z M3670 5115 c0 -20 5 -25 25 -25 20 0 25
5 25 25 0 20 -5 25 -25 25 -20 0 -25 -5 -25 -25z M4060 4880 c0 -25 4 -30 25
-30 21 0 25 5 25 30 0 25 -4 30 -25 30 -21 0 -25 -5 -25 -30z M1672 4433 c3
-26 6 -28 48 -28 42 0 45 2 48 28 3 26 2 27 -48 27 -50 0 -51 -1 -48 -27z
M2073 4233 c-7 -2 -13 -18 -13 -34 l0 -29 90 0 90 0 0 35 0 35 -77 -1 c-43 0
-84 -3 -90 -6z M4670 3990 l0 -50 45 0 c42 0 45 2 45 28 0 59 -9 72 -51 72
l-39 0 0 -50z M4770 3825 c0 -15 6 -25 14 -25 8 0 16 -10 18 -22 5 -37 58 -39
58 -3 0 18 -6 29 -20 32 -11 3 -20 14 -20 24 0 14 -7 19 -25 19 -20 0 -25 -5
-25 -25z M5010 3515 c0 -20 5 -25 25 -25 20 0 25 5 25 25 0 20 -5 25 -25 25
-20 0 -25 -5 -25 -25z M4270 3405 c0 -20 5 -25 25 -25 20 0 25 5 25 25 0 20
-5 25 -25 25 -20 0 -25 -5 -25 -25z M4910 3351 c0 -46 2 -48 58 -57 40 -6 42
-5 42 20 0 25 2 26 55 26 52 0 55 1 55 25 l0 25 -105 0 -105 0 0 -39z M1620
3341 c0 -41 11 -51 56 -51 21 0 24 5 24 33 0 40 -15 57 -52 57 -26 0 -28 -3
-28 -39z M4183 3353 c-7 -2 -13 -11 -13 -18 0 -8 -16 -19 -36 -24 -20 -6 -44
-17 -53 -25 -9 -9 -35 -19 -57 -24 -33 -7 -39 -12 -42 -36 l-4 -29 49 8 c26 3
60 13 76 20 15 8 52 17 82 20 l55 7 0 54 c0 56 -12 66 -57 47z M950 3295 c0
-20 5 -25 25 -25 20 0 25 5 25 25 0 20 -5 25 -25 25 -20 0 -25 -5 -25 -25z
M2070 3230 c0 -25 4 -30 25 -30 21 0 25 5 25 30 0 25 -4 30 -25 30 -21 0 -25
-5 -25 -30z M2210 3196 c0 -35 13 -46 51 -46 16 0 19 7 19 40 0 39 -1 40 -35
40 -33 0 -35 -2 -35 -34z M3788 3223 c-26 -4 -28 -8 -28 -49 0 -44 0 -44 35
-44 19 0 49 9 67 20 18 11 48 20 66 20 27 0 32 4 32 24 0 32 -72 44 -172 29z
M3306 1354 c-16 -41 -7 -64 24 -64 28 0 30 2 30 40 0 36 -3 40 -24 40 -13 0
-27 -7 -30 -16z M2710 1315 c0 -32 2 -35 30 -35 23 0 30 5 30 19 0 35 -12 51
-36 51 -21 0 -24 -5 -24 -35z M2780 1130 c0 -49 1 -50 30 -50 20 0 30 5 30 15
0 8 9 15 20 15 14 0 20 7 20 23 0 33 -19 47 -62 47 l-38 0 0 -50z M2590 1145
c0 -20 5 -25 25 -25 20 0 25 5 25 25 0 20 -5 25 -25 25 -20 0 -25 -5 -25 -25z
M3960 1070 c0 -28 3 -30 35 -30 32 0 35 2 35 30 0 28 -3 30 -35 30 -32 0 -35
-2 -35 -30z M1460 685 c0 -21 5 -25 30 -25 25 0 30 4 30 25 0 21 -5 25 -30 25
-25 0 -30 -4 -30 -25z M2530 650 l0 -50 41 0 42 0 -7 42 c-9 54 -12 58 -47 58
-28 0 -29 -1 -29 -50z M3890 620 c0 -25 4 -30 25 -30 21 0 25 5 25 30 0 25 -4
30 -25 30 -21 0 -25 -5 -25 -30z M2033 573 c-40 -20 -47 -63 -10 -63 74 0 97
11 97 46 0 40 -30 45 -87 17z"/>
</g>
<g transform="translate(0.000000,664.000000) scale(0.100000,-0.100000)"
fill="#f1990f" stroke="none">
<path d="M1880 5825 c0 -14 7 -28 15 -31 8 -4 15 -17 15 -30 0 -21 4 -24 40
-24 34 0 40 3 40 21 0 21 -21 49 -38 49 -5 0 -12 9 -15 20 -8 32 -57 28 -57
-5z M1550 5815 c-7 -8 -18 -15 -26 -15 -9 0 -14 -17 -16 -52 -3 -51 -4 -53
-33 -53 -23 0 -31 5 -33 23 -3 16 -10 22 -28 22 -21 0 -24 -4 -24 -39 0 -43
-34 -81 -71 -81 -15 0 -19 -8 -19 -35 0 -31 -3 -35 -25 -35 -21 0 -25 -5 -25
-30 0 -26 -3 -30 -29 -30 -40 0 -51 -54 -51 -258 0 -266 9 -352 35 -352 12 0
30 9 40 20 14 15 31 20 72 20 l53 0 0 55 c0 42 4 57 16 62 14 5 15 16 10 65
-7 57 -6 58 17 58 26 0 37 21 37 69 0 30 43 71 76 71 13 0 24 -4 24 -10 0 -5
16 -10 36 -10 47 0 94 -45 94 -89 0 -29 -2 -31 -40 -31 -36 0 -40 -3 -40 -24
0 -13 -7 -26 -15 -30 -8 -3 -15 -17 -15 -31 0 -16 6 -25 15 -25 8 0 15 -3 15
-7 0 -5 18 -21 40 -37 40 -30 56 -76 27 -76 -23 0 -55 -44 -59 -80 -3 -30 -7
-35 -30 -38 -26 -3 -28 -1 -28 32 0 33 -2 36 -30 36 -18 0 -33 -6 -36 -15 -9
-23 -68 -55 -103 -55 -17 0 -49 -6 -71 -12 -39 -13 -40 -14 -40 -60 0 -41 -3
-47 -22 -50 -20 -3 -23 -10 -26 -53 -4 -56 14 -155 29 -155 5 0 9 -18 9 -40 0
-39 1 -40 36 -40 30 0 37 4 45 30 8 22 17 30 35 30 24 0 24 -1 24 -95 0 -57 4
-95 10 -95 6 0 10 -6 10 -14 0 -7 14 -16 30 -19 21 -5 30 -12 30 -27 0 -16 7
-20 35 -20 33 0 35 2 35 34 0 49 9 66 34 66 33 0 46 -19 46 -71 0 -51 14 -59
113 -59 20 0 37 -4 37 -10 0 -16 63 -12 88 6 14 10 54 18 103 21 57 4 79 10
79 19 0 9 12 14 35 14 24 0 35 5 35 15 0 10 11 15 35 15 30 0 35 -3 35 -24 0
-31 16 -36 105 -36 l73 0 7 70 7 70 64 -6 64 -7 0 27 c0 17 5 26 16 26 25 0
84 68 84 96 0 21 -5 24 -34 24 -45 0 -45 1 -53 114 -8 120 -22 125 -108 42
-52 -52 -55 -57 -55 -105 l0 -51 -75 0 c-72 0 -75 1 -75 23 0 31 -18 47 -52
47 -25 0 -28 -3 -28 -35 0 -34 1 -35 40 -35 36 0 40 -3 40 -24 0 -31 -15 -36
-111 -36 -72 0 -79 2 -79 20 0 18 -7 20 -60 20 l-60 0 0 -50 c0 -48 1 -50 28
-50 15 0 45 -7 67 -16 22 -8 48 -17 58 -21 10 -3 17 -16 17 -33 0 -25 -4 -28
-85 -48 -117 -30 -112 -31 -120 33 -7 49 -10 55 -31 55 -21 0 -24 5 -24 40 l0
41 -63 -7 c-69 -7 -70 -7 -106 59 -22 40 -28 77 -11 77 6 0 10 4 10 10 0 5 20
28 45 51 42 38 45 45 45 90 0 48 1 49 29 49 17 0 33 5 36 10 3 6 21 10 40 10
38 0 45 12 45 76 0 42 1 44 30 44 17 0 30 -4 30 -10 0 -15 78 -12 87 3 4 7 22
17 38 22 35 12 52 85 21 85 -9 0 -16 9 -16 21 0 11 -10 39 -22 62 -12 23 -24
49 -28 57 -4 8 -22 17 -41 20 -28 4 -35 10 -37 33 -2 19 1 27 12 27 10 0 16 9
16 23 0 33 -35 46 -143 54 -115 8 -147 32 -147 107 0 34 -4 46 -15 46 -11 0
-15 11 -15 39 0 30 -4 40 -20 44 -32 8 -28 67 4 67 27 0 36 -16 36 -66 0 -24
5 -34 15 -34 9 0 15 -9 15 -25 0 -23 4 -25 45 -25 45 0 45 0 45 35 0 28 -4 35
-20 35 -17 0 -20 7 -20 50 0 28 5 50 10 50 6 0 10 11 10 25 0 14 -4 25 -10 25
-5 0 -10 6 -10 14 0 7 -9 25 -21 40 -11 14 -25 42 -30 61 -6 20 -16 35 -24 35
-8 0 -15 7 -15 15 0 11 -12 15 -49 15 -31 0 -53 -5 -61 -15z M4119 5802 c-20
-9 -65 -61 -79 -93 -6 -13 -22 -39 -35 -58 -16 -22 -25 -47 -25 -72 0 -39 0
-39 40 -39 37 0 41 3 47 30 3 17 12 30 19 30 10 0 14 13 14 44 0 39 3 45 23
48 14 2 23 11 25 25 2 12 10 27 18 33 8 7 14 23 14 36 0 25 -25 31 -61 16z
M4490 5760 c0 -29 2 -30 45 -30 43 0 45 -1 45 -30 0 -28 -2 -30 -40 -30 -33 0
-40 -3 -40 -20 0 -22 -10 -24 -84 -14 -29 4 -46 12 -46 20 0 20 -44 17 -63 -4
-10 -10 -17 -30 -17 -44 0 -14 -7 -28 -15 -32 -8 -3 -15 -17 -15 -32 0 -14 -9
-37 -20 -51 -11 -14 -20 -37 -20 -52 0 -14 -12 -48 -25 -76 -26 -53 -32 -85
-15 -85 6 0 10 -16 10 -35 l0 -35 50 0 c43 0 50 -3 50 -19 0 -13 9 -21 30 -26
21 -5 30 -13 30 -26 0 -27 46 -26 53 1 6 24 57 29 57 5 0 -11 11 -15 41 -15
49 0 92 29 99 68 11 58 100 23 100 -39 0 -24 -4 -28 -32 -31 l-33 -3 -3 -154
c-3 -174 0 -181 62 -181 33 0 43 -4 51 -22 12 -29 85 -40 85 -14 0 11 9 16 29
16 40 0 40 0 40 348 0 306 -4 342 -36 342 -8 0 -13 13 -13 30 0 29 -2 30 -45
30 -41 0 -45 2 -45 25 0 20 5 25 25 25 18 0 25 -5 25 -20 0 -15 7 -20 25 -20
23 0 25 4 25 43 0 40 -3 46 -41 70 -22 15 -46 27 -52 27 -7 0 -18 9 -25 20 -7
11 -20 20 -31 20 -10 0 -26 9 -36 20 -10 11 -28 20 -40 20 -14 0 -25 8 -28 20
-4 17 -14 20 -61 20 -56 0 -56 0 -56 -30z m220 -165 c0 -21 -5 -25 -30 -25
-25 0 -30 4 -30 25 0 21 5 25 30 25 25 0 30 -4 30 -25z m-330 -270 c0 -20 -5
-25 -25 -25 -20 0 -25 5 -25 25 0 20 5 25 25 25 20 0 25 -5 25 -25z M1990
5650 c0 -28 4 -40 14 -40 10 0 16 -14 18 -42 l3 -43 58 -3 c53 -3 57 -1 57 19
0 29 -57 99 -81 99 -14 0 -19 7 -19 25 0 20 -5 25 -25 25 -22 0 -25 -4 -25
-40z M3916 5495 c-11 -19 -23 -35 -28 -35 -4 0 -8 -7 -8 -15 0 -8 -4 -15 -10
-15 -5 0 -12 -11 -16 -25 -3 -14 -13 -25 -20 -25 -8 0 -18 -8 -21 -17 -4 -10
-15 -27 -25 -37 -10 -11 -18 -25 -18 -30 0 -6 -9 -22 -20 -36 -11 -14 -20 -35
-20 -47 0 -13 -4 -23 -8 -23 -11 0 -32 -46 -32 -69 0 -11 -7 -21 -15 -25 -10
-3 -15 -19 -15 -46 0 -33 -3 -40 -20 -40 -16 0 -20 -7 -20 -35 0 -31 -3 -35
-25 -35 -20 0 -25 -5 -25 -25 0 -21 5 -25 30 -25 17 0 30 5 30 10 0 6 9 10 21
10 13 0 23 10 30 30 10 28 15 30 60 30 37 0 49 4 49 15 0 8 6 15 14 15 17 0
26 21 26 60 0 19 6 29 20 33 16 4 20 14 20 45 0 26 5 42 15 46 10 4 15 20 15
51 0 38 3 45 20 45 18 0 20 7 20 60 0 49 3 61 20 70 32 17 30 120 -3 120 -15
0 -28 -11 -41 -35z M2190 5390 c0 -5 -13 -10 -30 -10 -28 0 -30 -3 -30 -35 0
-21 6 -38 14 -41 7 -3 17 -24 20 -47 4 -23 17 -52 28 -64 12 -13 24 -42 27
-65 7 -49 45 -73 81 -50 11 7 33 12 50 12 27 0 30 3 30 31 0 31 -39 107 -65
129 -8 7 -15 26 -15 42 0 22 -7 33 -30 46 -19 11 -30 25 -30 40 0 17 -6 22
-25 22 -14 0 -25 -4 -25 -10z M4050 5090 c0 -11 -6 -20 -14 -20 -16 0 -26 -21
-26 -55 0 -12 -7 -28 -16 -35 -28 -24 -14 -74 22 -78 22 -2 34 -9 37 -23 4
-15 14 -19 46 -19 37 0 41 2 41 26 0 33 -17 64 -35 64 -22 0 -18 43 5 60 41
30 16 100 -36 100 -17 0 -24 -5 -24 -20z M2370 4995 c0 -15 6 -25 14 -25 8 0
16 -10 18 -22 2 -18 11 -24 36 -26 30 -3 32 -1 32 27 0 17 -4 31 -9 31 -5 0
-11 9 -14 20 -9 33 -77 29 -77 -5z M2820 4983 c-8 -3 -22 -12 -32 -20 -9 -8
-47 -18 -85 -21 -68 -7 -68 -7 -71 -39 -4 -36 -43 -48 -59 -18 -5 7 -27 17
-51 21 l-42 7 0 -45 c0 -38 4 -47 25 -56 14 -6 25 -16 25 -22 0 -5 23 -10 50
-10 49 0 50 1 50 30 0 26 3 30 29 30 16 0 31 -5 33 -10 6 -18 118 0 140 22 13
13 40 22 76 25 31 3 60 10 63 16 4 6 28 6 65 1 50 -8 59 -12 62 -31 3 -19 10
-23 36 -23 62 0 96 11 96 31 0 28 60 27 67 -1 3 -13 14 -20 29 -20 16 0 24 -6
24 -18 0 -34 21 -42 113 -42 l89 0 -7 48 c-8 56 1 48 -67 56 -54 7 -58 6 -58
-13 0 -17 -6 -21 -35 -21 -35 0 -35 0 -35 45 l0 45 -40 0 c-27 0 -42 5 -49 18
-9 15 -31 17 -218 19 -114 1 -215 -1 -223 -4z M2940 4820 c0 -27 3 -30 30 -30
27 0 30 3 30 30 0 27 -3 30 -30 30 -27 0 -30 -3 -30 -30z M2400 4805 c0 -20 5
-25 25 -25 20 0 25 5 25 25 0 20 -5 25 -25 25 -20 0 -25 -5 -25 -25z M4220
4780 c0 -18 6 -33 15 -36 8 -4 15 -10 15 -16 0 -11 25 -38 35 -38 4 0 13 -7
21 -15 9 -8 26 -15 40 -15 21 0 24 5 24 35 0 30 -3 35 -24 35 -21 0 -25 5 -28
38 -3 37 -3 37 -50 40 -48 3 -48 3 -48 -28z M4386 4795 c-16 -42 -8 -56 32
-53 34 3 37 6 37 33 0 26 -4 30 -31 33 -22 2 -33 -2 -38 -13z M2190 4752 c0
-4 -13 -13 -30 -19 -49 -18 -40 -93 11 -93 24 0 29 4 29 25 0 18 5 25 20 25
16 0 20 7 20 35 0 31 -3 35 -25 35 -14 0 -25 -4 -25 -8z M3912 4673 c2 -23 8
-29 36 -31 30 -3 32 -1 32 27 0 29 -3 31 -36 31 -33 0 -35 -2 -32 -27z M3790
4655 c0 -20 5 -25 25 -25 20 0 25 5 25 25 0 20 -5 25 -25 25 -20 0 -25 -5 -25
-25z M4800 4640 c0 -36 3 -40 25 -40 23 0 25 4 25 40 0 36 -2 40 -25 40 -22 0
-25 -4 -25 -40z M4380 4633 c0 -35 16 -53 48 -53 21 0 23 4 20 38 -3 34 -6 37
-35 40 -30 3 -33 1 -33 -25z M4040 4606 c0 -7 -7 -19 -15 -26 -9 -7 -15 -29
-15 -54 l0 -42 -50 -13 c-32 -8 -50 -18 -50 -28 0 -24 -159 -8 -182 18 -28 33
-58 25 -58 -16 0 -27 -4 -35 -18 -35 -35 0 -71 25 -78 53 -4 20 -12 27 -28 27
-21 0 -24 -5 -30 -77 -11 -141 -9 -163 17 -163 13 0 38 11 57 25 19 14 47 25
62 25 23 0 28 4 28 24 0 42 11 56 41 56 27 0 29 -3 29 -36 l0 -37 43 7 c23 4
44 11 45 16 6 16 82 12 82 -4 0 -14 77 -26 179 -26 33 -1 64 -7 75 -15 11 -8
41 -15 67 -15 l47 0 7 -95 7 -95 29 0 c28 0 29 2 29 48 0 55 12 72 51 72 33 0
42 20 33 76 -5 36 -3 43 13 48 42 14 64 50 61 102 -3 49 -3 49 -41 52 -26 2
-39 -1 -43 -12 -3 -9 -15 -16 -25 -16 -10 0 -19 -4 -19 -10 0 -5 -25 -10 -55
-10 -30 0 -55 4 -55 9 0 5 -22 33 -50 63 -27 29 -50 56 -50 60 0 4 -18 19 -40
33 -43 27 -100 34 -100 11z M1920 4572 c0 -4 -13 -13 -30 -19 -24 -9 -30 -17
-30 -42 0 -29 2 -31 40 -31 36 0 40 3 40 25 0 18 5 25 20 25 15 0 20 7 20 25
0 21 -5 25 -30 25 -16 0 -30 -4 -30 -8z M3790 4509 c0 -27 3 -30 28 -27 43 5
46 58 3 58 -28 0 -31 -3 -31 -31z M2010 4495 c0 -21 5 -25 30 -25 25 0 30 4
30 25 0 21 -5 25 -30 25 -25 0 -30 -4 -30 -25z M4710 4260 c0 -15 -7 -20 -25
-20 -16 0 -40 -14 -62 -35 -20 -19 -43 -35 -51 -35 -20 0 -10 -121 13 -153 8
-12 15 -29 15 -39 0 -10 6 -18 14 -18 7 0 20 -9 27 -21 9 -13 29 -22 57 -26
l42 -6 0 80 c0 43 7 103 16 133 9 30 18 79 21 108 l5 52 -36 0 c-29 0 -36 -4
-36 -20z M2640 4131 c0 -33 5 -51 14 -54 8 -3 16 -16 18 -29 2 -19 10 -24 41
-26 l37 -3 0 40 c0 34 3 41 20 41 16 0 20 7 20 30 0 28 -3 30 -34 30 -19 0
-38 5 -41 10 -3 6 -22 10 -41 10 l-34 0 0 -49z M2480 4145 c0 -20 5 -25 25
-25 20 0 25 5 25 25 0 20 -5 25 -25 25 -20 0 -25 -5 -25 -25z M3002 4157 c-7
-8 -13 -72 -14 -158 l-3 -144 -70 -5 -70 -5 3 -77 4 -78 -26 0 c-22 0 -26 4
-26 29 0 17 -4 33 -10 36 -5 3 -10 19 -10 36 0 26 -3 29 -30 29 -18 0 -33 6
-36 15 -4 8 -17 15 -30 15 -19 0 -24 5 -24 25 0 20 5 25 26 25 39 0 31 54 -8
58 -16 2 -28 -1 -28 -7 0 -6 -18 -11 -40 -11 -33 0 -40 -3 -40 -20 0 -29 -102
-30 -123 0 -10 14 -30 21 -80 26 l-67 7 0 -27 c0 -22 4 -26 30 -26 23 0 30 -4
30 -20 0 -13 7 -20 18 -20 10 0 29 -11 42 -24 12 -14 35 -28 51 -31 16 -4 29
-11 29 -16 0 -5 17 -27 37 -50 39 -43 42 -44 141 -23 31 6 32 5 32 -27 0 -19
-9 -45 -20 -59 -11 -14 -20 -37 -20 -52 0 -26 3 -28 40 -28 22 0 40 5 40 10 0
6 16 10 35 10 19 0 35 -4 35 -10 0 -5 11 -10 25 -10 22 0 25 4 25 38 0 79 4
82 86 82 43 0 74 4 74 10 0 19 115 12 133 -8 22 -24 23 -82 2 -82 -12 0 -15
-14 -15 -65 0 -63 1 -65 25 -65 24 0 25 3 25 60 0 60 0 60 29 60 26 0 30 4 33
33 2 27 8 33 31 35 19 2 27 -1 27 -12 0 -12 11 -16 50 -16 l50 0 0 45 0 45 40
0 c29 0 48 7 73 30 19 17 39 30 45 30 17 0 42 48 42 80 0 25 -4 30 -25 30 -22
0 -25 4 -25 40 0 36 3 40 25 40 21 0 25 -5 25 -30 0 -28 3 -30 35 -30 30 0 35
3 35 23 0 28 -17 47 -42 47 -14 0 -18 8 -18 39 0 43 -10 51 -68 51 -49 0 -60
9 -64 50 l-3 35 -172 3 c-104 1 -173 6 -173 12 0 16 -136 12 -148 -3z m198
-342 c0 -20 -5 -25 -25 -25 -20 0 -25 5 -25 25 0 20 5 25 25 25 20 0 25 -5 25
-25z m130 -86 c0 -27 -3 -30 -27 -27 -44 5 -47 58 -4 58 28 0 31 -3 31 -31z
M1410 4135 c0 -22 -4 -25 -35 -25 -40 0 -40 -1 -29 -109 7 -65 26 -80 60 -46
9 8 28 15 43 15 30 0 41 -24 41 -86 0 -22 4 -24 45 -24 l45 0 0 40 0 40 40 0
c39 0 40 1 40 35 0 30 3 35 24 35 56 0 70 26 44 83 -10 20 -20 27 -40 27 -27
0 -28 -2 -28 -55 l0 -55 -55 0 c-43 0 -55 3 -55 15 0 14 -10 15 -60 9 -59 -7
-60 -6 -60 19 0 21 6 27 33 32 36 8 47 20 47 53 0 20 -5 22 -50 22 -47 0 -50
-2 -50 -25z M3808 4123 c-34 -3 -48 -8 -48 -19 0 -7 -7 -14 -16 -14 -14 0 -15
-7 -10 -37 3 -21 6 -46 6 -55 0 -13 8 -18 26 -18 17 0 28 -6 31 -20 5 -18 14
-20 92 -21 47 -1 130 -2 184 -4 l97 -3 0 34 c0 28 4 34 21 34 16 0 20 5 17 28
-3 25 -6 27 -57 30 -35 2 -60 9 -74 22 -11 11 -37 22 -56 25 -20 3 -55 10 -79
15 -23 6 -52 9 -65 8 -12 -1 -43 -3 -69 -5z M4400 4085 c0 -20 5 -25 25 -25
20 0 25 5 25 25 0 20 -5 25 -25 25 -20 0 -25 -5 -25 -25z M2810 4055 c0 -9 -9
-15 -25 -15 -24 0 -25 -3 -25 -60 0 -57 1 -60 25 -60 23 0 25 4 25 45 l0 45
40 0 c38 0 40 2 40 30 0 28 -2 30 -40 30 -29 0 -40 -4 -40 -15z M2060 4005
c-8 -2 -32 -6 -52 -10 -32 -5 -38 -10 -38 -30 0 -24 2 -25 80 -25 l80 0 0 35
c0 36 -13 42 -70 30z M4283 3993 c-51 -4 -53 -5 -53 -34 l0 -30 55 6 c38 5 55
4 55 -4 0 -6 14 -11 30 -11 25 0 30 -4 30 -25 0 -14 -4 -25 -10 -25 -20 0 -10
-66 13 -88 49 -46 117 -37 117 15 0 17 7 27 21 30 30 8 24 77 -8 81 -13 2 -23
8 -23 13 0 7 -20 8 -55 4 l-55 -7 0 41 c0 46 11 43 -117 34z M1767 3953 c-20
-20 -6 -53 22 -53 63 0 91 11 91 36 0 22 -4 24 -53 24 -30 0 -57 -3 -60 -7z
M2820 3935 c0 -22 4 -25 35 -25 31 0 35 3 35 25 0 22 -4 25 -35 25 -31 0 -35
-3 -35 -25z M1643 3865 c-24 -26 -16 -65 12 -65 14 0 25 4 25 9 0 5 10 11 23
13 16 2 23 11 25 31 3 25 1 27 -35 27 -21 -1 -44 -7 -50 -15z M4870 3680 c0
-26 -64 -29 -78 -4 -13 24 -92 13 -111 -15 -7 -12 -20 -21 -27 -21 -22 0 -45
-57 -51 -130 l-6 -69 -53 -7 -54 -6 0 -56 0 -55 61 7 c34 3 84 6 110 6 l49 0
0 35 c0 31 3 35 25 35 22 0 25 -4 25 -35 0 -34 2 -35 36 -35 l36 0 -7 50 -7
50 31 0 c24 0 31 -4 31 -20 0 -16 7 -20 30 -20 28 0 30 3 30 35 l0 35 60 0
c60 0 60 0 60 29 0 20 -9 36 -25 49 -14 11 -25 25 -25 30 0 6 -10 22 -22 36
-13 14 -34 41 -48 60 -29 40 -70 50 -70 16z M1155 3671 c-3 -11 -15 -23 -26
-26 -27 -9 -26 -55 1 -55 15 0 20 -7 20 -25 0 -14 -4 -25 -10 -25 -5 0 -10
-11 -10 -24 0 -14 -4 -28 -10 -31 -5 -3 -10 -19 -10 -36 0 -24 4 -29 23 -29
26 0 47 34 47 75 0 14 5 25 10 25 6 0 10 11 10 25 0 20 5 25 25 25 23 0 25 3
25 50 0 38 -4 52 -19 60 -32 17 -69 12 -76 -9z M1556 3645 c-17 -46 -9 -55 50
-55 l55 0 -3 33 c-3 31 -5 32 -49 35 -36 2 -48 -1 -53 -13z M1463 3533 c-15
-3 -23 -12 -23 -24 0 -17 -8 -19 -90 -19 -89 0 -90 0 -90 -25 0 -23 4 -25 45
-25 41 0 45 -2 45 -24 0 -31 -31 -39 -121 -30 -75 7 -99 -4 -99 -47 0 -19 4
-21 38 -15 20 3 115 6 210 6 l172 0 0 40 0 40 40 0 c37 0 40 2 40 28 0 23 -7
32 -36 45 -20 10 -38 27 -41 37 -5 20 -33 24 -90 13z M2710 3490 c0 -29 2 -30
45 -30 43 0 45 1 45 30 0 29 -2 30 -45 30 -43 0 -45 -1 -45 -30z M3260 3430
c0 -29 -1 -30 -50 -30 -48 0 -50 -1 -50 -29 0 -41 20 -54 73 -46 59 9 70 -10
71 -122 l0 -83 43 0 c39 0 43 2 43 25 0 20 5 25 25 25 23 0 25 -4 25 -45 0
-33 4 -45 15 -45 9 0 15 -9 15 -21 0 -20 4 -21 59 -16 81 7 181 53 181 84 0
17 -6 23 -21 23 -34 0 -59 19 -59 45 0 21 -6 25 -47 31 -27 4 -50 10 -53 15
-3 4 -25 11 -48 15 -39 6 -44 4 -49 -15 -8 -29 -48 -28 -68 3 -12 18 -33 145
-35 209 0 4 -16 7 -35 7 -32 0 -35 -2 -35 -30z M4300 3400 c0 -22 5 -40 10
-40 6 0 10 -13 10 -30 0 -28 2 -30 41 -30 l41 0 -7 48 c-3 26 -13 52 -21 58
-8 6 -14 16 -14 23 0 6 -13 11 -30 11 -28 0 -30 -2 -30 -40z M2740 3378 c0
-28 -9 -42 -32 -51 -11 -4 -18 -17 -18 -32 0 -23 4 -25 40 -25 38 0 40 -2 40
-30 0 -27 -3 -30 -30 -30 -25 0 -30 4 -30 25 0 24 -3 25 -61 25 -58 0 -60 -1
-70 -30 -8 -22 -17 -30 -35 -30 -21 0 -24 -4 -24 -40 0 -36 -2 -40 -25 -40
-23 0 -25 3 -25 50 l0 50 -52 0 c-67 0 -76 -6 -84 -56 -6 -39 -5 -41 29 -57
19 -10 46 -17 60 -17 14 0 27 -7 30 -14 3 -8 22 -18 41 -21 19 -4 40 -13 47
-21 19 -23 79 -18 79 6 0 15 7 20 25 20 18 0 25 5 25 19 0 30 -11 51 -26 51
-8 0 -14 10 -14 25 0 20 5 25 25 25 14 0 25 -4 25 -10 0 -11 81 -13 118 -4 27
8 34 104 7 104 -10 0 -15 10 -15 30 0 27 3 30 31 30 28 0 30 2 27 33 -3 31 -4
32 -55 35 -49 3 -53 1 -53 -20z M900 3300 c0 -46 2 -50 23 -50 33 0 47 19 47
62 0 37 -1 38 -35 38 l-35 0 0 -50z M1832 3303 c3 -36 5 -38 41 -41 l37 -3 0
40 0 41 -41 0 -40 0 3 -37z M4180 3299 c0 -39 1 -40 33 -37 29 3 32 6 35 41 3
36 3 37 -32 37 -35 0 -36 -1 -36 -41z M5103 3333 c-53 -10 -15 -72 45 -73 31
0 32 1 32 40 0 43 -8 46 -77 33z M2364 1923 c-3 -10 -10 -28 -15 -41 -5 -13
-9 -36 -9 -52 0 -29 2 -30 44 -30 l43 0 7 56 c4 37 2 61 -5 70 -16 20 -59 18
-65 -3z M3654 1924 c-11 -5 -10 -173 2 -271 5 -40 8 -43 35 -43 18 0 33 -7 41
-20 7 -11 23 -20 35 -20 26 0 28 16 13 90 -6 25 -15 72 -21 105 -7 33 -20 71
-30 84 -11 13 -19 37 -19 52 0 29 -21 37 -56 23z M2303 1510 l2 -190 28 0 27
0 0 93 c0 126 4 137 47 137 36 0 36 0 29 38 -3 20 -6 54 -6 75 l0 37 -64 0
-65 0 2 -190z M1520 1410 l0 -50 40 0 40 0 0 50 0 50 -40 0 -40 0 0 -50z
M1710 1435 c0 -24 3 -25 60 -25 57 0 60 -1 60 -24 0 -23 4 -24 91 -31 100 -8
122 2 116 55 -2 21 -8 25 -39 28 -21 2 -38 7 -38 13 0 5 -54 9 -125 9 l-125 0
0 -25z M2520 1418 c0 -13 7 -33 15 -44 16 -22 20 -64 5 -64 -5 0 -10 -7 -10
-15 0 -17 -45 -21 -55 -5 -3 6 -28 10 -56 10 l-49 0 0 -35 c0 -24 -5 -35 -15
-35 -12 0 -15 -13 -15 -59 0 -40 5 -65 15 -75 8 -8 15 -25 15 -37 0 -12 11
-37 25 -55 16 -21 25 -46 25 -68 0 -25 4 -36 15 -36 8 0 15 -7 15 -15 0 -11
12 -15 45 -15 38 0 45 -3 45 -20 0 -12 7 -20 17 -20 17 0 103 -83 103 -100 0
-5 10 -10 23 -12 17 -2 23 -11 25 -35 3 -33 3 -33 -42 -33 -42 0 -46 -2 -46
-25 0 -24 2 -25 65 -25 l65 0 0 -30 c0 -28 3 -30 35 -30 33 0 35 2 35 35 0 30
3 35 24 35 21 0 25 -5 28 -37 3 -35 6 -38 36 -41 l32 -3 0 114 0 115 -51 7
c-31 4 -57 15 -67 26 -9 10 -24 19 -34 19 -13 0 -18 8 -18 30 0 24 4 30 21 30
32 0 23 62 -11 70 -16 4 -26 14 -28 28 -2 14 -10 22 -22 22 -33 0 -60 39 -60
87 l0 43 -40 0 c-36 0 -40 3 -40 25 0 23 4 25 40 25 29 0 40 4 40 15 0 9 9 15
25 15 22 0 25 4 25 39 0 41 -13 51 -67 51 -17 0 -23 6 -23 22 0 12 -8 30 -17
40 -10 11 -22 34 -28 51 -13 42 -65 53 -65 15z m-70 -228 c0 -25 -4 -30 -25
-30 -21 0 -25 5 -25 30 0 25 4 30 25 30 21 0 25 -5 25 -30z M3460 1371 c-5
-11 -10 -26 -10 -33 0 -22 -46 -58 -74 -58 -19 0 -26 5 -26 20 0 37 -47 26
-55 -12 -4 -18 -25 -53 -46 -78 -49 -58 -52 -90 -9 -90 20 0 30 -5 30 -15 0
-8 9 -15 20 -15 11 0 25 -9 32 -20 11 -17 24 -20 80 -20 62 0 68 -2 68 -21 0
-11 -7 -27 -15 -35 -21 -21 -20 -110 2 -132 35 -36 123 -59 123 -33 0 6 11 22
25 37 14 15 25 38 25 50 0 15 6 24 15 24 10 0 15 10 15 33 0 17 9 43 20 57 11
14 20 41 20 63 0 20 5 37 10 37 6 0 10 14 10 30 0 27 -3 30 -30 30 -23 0 -30
-4 -30 -20 0 -33 -46 -26 -65 10 -11 21 -23 30 -40 30 -20 0 -25 5 -25 25 0
14 5 25 10 25 16 0 12 46 -7 90 -20 45 -54 55 -73 21z M1260 1350 c0 -17 -7
-20 -39 -20 -22 0 -44 -6 -51 -15 -7 -8 -19 -15 -27 -15 -30 0 -73 -34 -73
-57 0 -19 5 -23 30 -23 23 0 30 -4 30 -20 0 -18 7 -20 60 -20 l60 0 0 44 c0
25 5 48 10 51 6 3 10 15 10 26 0 16 7 19 45 19 41 0 45 2 45 25 0 23 -3 25
-50 25 -43 0 -50 -3 -50 -20z M1430 1353 c0 -42 13 -63 36 -63 21 0 24 5 24
40 0 38 -2 40 -30 40 -22 0 -30 -5 -30 -17z M1570 1320 c0 -25 4 -30 25 -30
21 0 25 5 25 30 0 25 -4 30 -25 30 -21 0 -25 -5 -25 -30z M2770 1215 c0 -8 -9
-15 -20 -15 -18 0 -20 -7 -20 -55 0 -52 1 -55 25 -55 23 0 25 4 25 45 0 38 3
45 20 45 15 0 20 7 20 25 0 20 -5 25 -25 25 -16 0 -25 -6 -25 -15z M970 1174
c0 -44 1 -45 28 -42 24 3 27 7 30 46 3 41 2 42 -27 42 -30 0 -31 -1 -31 -46z
M2062 1093 c2 -31 7 -39 26 -41 16 -3 22 -10 22 -28 0 -21 5 -24 35 -24 l35 0
0 50 c0 43 -3 50 -20 50 -11 0 -20 7 -20 15 0 11 -11 15 -41 15 l-40 0 3 -37z
M1180 1093 c-29 -6 -40 -19 -40 -50 0 -21 4 -23 60 -23 57 0 60 1 60 24 0 54
-12 61 -80 49z M3910 1075 c0 -16 6 -25 15 -25 8 0 15 -9 15 -20 0 -17 7 -20
40 -20 46 0 53 21 24 65 -24 37 -94 37 -94 0z M1797 1033 c-4 -3 -7 -24 -7
-45 0 -38 0 -38 40 -38 l40 0 0 45 c0 44 0 45 -33 45 -19 0 -37 -3 -40 -7z
M3857 993 c-4 -3 -7 -18 -7 -33 0 -14 -4 -30 -9 -35 -5 -6 -14 -26 -20 -45 -6
-20 -27 -60 -47 -90 -45 -69 -55 -123 -26 -139 11 -6 24 -20 27 -31 3 -11 13
-20 21 -20 9 0 14 -11 14 -30 0 -26 4 -30 28 -30 15 0 57 -3 95 -7 67 -6 67
-6 67 19 0 26 -27 38 -87 38 -23 0 -25 3 -19 38 3 20 9 57 12 82 5 36 13 49
38 65 17 11 32 29 34 39 2 11 13 28 23 39 11 12 19 35 19 53 0 31 -2 33 -42
36 -39 3 -43 6 -46 31 -3 23 -8 27 -36 27 -18 0 -36 -3 -39 -7z M1600 955 c0
-8 -8 -15 -19 -15 -10 0 -24 -7 -31 -15 -9 -10 -31 -15 -73 -15 -97 0 -127
-15 -127 -65 0 -70 8 -85 46 -85 32 0 34 2 34 34 0 33 1 34 53 40 71 9 87 2
87 -41 0 -48 44 -44 78 7 13 19 29 37 35 39 51 16 77 35 77 57 0 17 -6 24 -20
24 -13 0 -20 7 -20 19 0 21 -26 31 -82 31 -27 0 -38 -4 -38 -15z M1260 925 c0
-20 5 -25 25 -25 20 0 25 5 25 25 0 20 -5 25 -25 25 -20 0 -25 -5 -25 -25z
M2180 830 c0 -38 -2 -40 -31 -40 -27 0 -30 -3 -27 -27 3 -28 3 -28 91 -31 l87
-3 0 37 c0 27 -5 37 -20 41 -14 4 -20 14 -20 34 0 27 -3 29 -40 29 l-40 0 0
-40z M1140 825 c0 -20 5 -25 25 -25 20 0 25 5 25 25 0 20 -5 25 -25 25 -20 0
-25 -5 -25 -25z M3140 820 c0 -28 3 -30 35 -30 32 0 35 2 35 30 0 28 -3 30
-35 30 -32 0 -35 -2 -35 -30z M3330 805 c0 -20 5 -25 25 -25 20 0 25 5 25 25
0 20 -5 25 -25 25 -20 0 -25 -5 -25 -25z M991 753 c-91 -61 -97 -103 -15 -103
20 0 24 -5 24 -30 l0 -30 -75 0 c-73 0 -75 -1 -75 -25 0 -14 6 -26 13 -26 136
-15 347 2 347 28 0 8 12 13 30 13 29 0 30 2 30 45 0 43 -1 45 -30 45 -28 0
-30 3 -30 35 0 31 -3 35 -27 35 -52 0 -73 11 -73 36 0 38 -39 30 -119 -23z
M3410 721 c0 -42 11 -51 60 -51 23 0 29 5 34 31 11 57 10 59 -44 59 l-50 0 0
-39z M3130 603 l0 -63 115 0 115 0 0 29 c0 16 -7 34 -15 41 -8 7 -15 22 -15
34 0 20 -5 21 -100 22 l-100 0 0 -63z M2127 593 c-4 -3 -7 -19 -7 -35 0 -25 3
-28 35 -28 36 0 44 15 29 54 -6 16 -45 22 -57 9z"/>
</g>
<g transform="translate(0.000000,664.000000) scale(0.100000,-0.100000)"
fill="#bc8034" stroke="none">
<path d="M4230 5965 c0 -23 4 -25 45 -25 41 0 45 2 45 25 0 23 -4 25 -45 25
-41 0 -45 -2 -45 -25z M4410 5905 c0 -20 5 -25 25 -25 20 0 25 5 25 25 0 20
-5 25 -25 25 -20 0 -25 -5 -25 -25z M1190 5695 c0 -20 5 -25 25 -25 20 0 25 5
25 25 0 20 -5 25 -25 25 -20 0 -25 -5 -25 -25z M3544 5088 c-9 -42 -31 -76
-55 -83 -12 -4 -19 -16 -19 -31 0 -21 5 -24 35 -24 19 0 39 6 45 13 31 37 62
95 67 124 5 32 5 33 -30 33 -32 0 -36 -3 -43 -32z M2490 5042 c0 -49 30 -82
73 -82 23 1 53 7 67 15 14 8 42 14 63 15 33 0 37 3 37 25 0 24 -2 25 -74 25
-41 0 -78 5 -81 10 -12 19 -85 12 -85 -8z M808 1229 c-24 -14 -23 -56 2 -71
12 -8 20 -24 20 -40 0 -31 34 -40 58 -16 18 18 15 68 -3 68 -10 0 -15 11 -15
35 0 38 -24 47 -62 24z M742 1053 c3 -33 7 -38 31 -41 26 -3 27 -1 27 37 0 39
-1 41 -31 41 -29 0 -30 -2 -27 -37z M980 861 c0 -36 3 -41 23 -41 35 0 49 15
45 46 -2 25 -8 29 -35 32 -32 3 -33 2 -33 -37z M642 728 c-7 -7 -12 -25 -12
-40 0 -27 2 -28 45 -28 l45 0 0 40 c0 39 -1 40 -33 40 -18 0 -38 -5 -45 -12z
M710 606 c0 -25 -5 -35 -20 -39 -13 -3 -20 -13 -20 -29 0 -37 13 -47 63 -54
l47 -7 0 37 c0 29 4 36 20 36 32 0 26 44 -9 69 -47 34 -81 28 -81 -13z"/>
</g>
<g transform="translate(0.000000,664.000000) scale(0.100000,-0.100000)"
fill="#2a1e3e" stroke="none">
<path d="M1276 6554 c-3 -9 -6 -26 -6 -39 0 -12 -7 -28 -15 -35 -7 -6 -17 -33
-21 -58 -4 -26 -12 -58 -19 -72 -8 -14 -18 -48 -23 -75 -6 -28 -17 -68 -26
-90 -8 -22 -15 -57 -16 -78 0 -21 -7 -52 -16 -68 -8 -17 -18 -63 -21 -102 -3
-40 -11 -83 -18 -97 -7 -14 -16 -81 -20 -150 -4 -69 -14 -145 -21 -170 -20
-64 -20 -660 -1 -716 8 -22 17 -89 20 -150 4 -68 12 -122 22 -140 8 -16 15
-55 15 -89 0 -41 7 -74 20 -100 11 -22 20 -57 20 -80 0 -22 9 -57 20 -78 11
-20 20 -49 20 -64 0 -16 7 -41 15 -57 25 -48 18 -68 -50 -145 -36 -41 -65 -78
-65 -82 0 -4 -25 -38 -56 -76 -31 -37 -63 -81 -71 -98 -9 -16 -33 -49 -54 -72
-22 -24 -39 -50 -39 -59 0 -9 -18 -36 -40 -60 -22 -24 -40 -52 -40 -62 0 -10
-9 -27 -20 -37 -11 -10 -20 -25 -20 -33 0 -9 -6 -23 -14 -31 -20 -22 -106
-193 -106 -210 0 -7 -9 -29 -21 -47 -12 -21 -19 -46 -17 -66 3 -37 -13 -35
176 -22 125 8 132 -4 52 -94 -30 -34 -55 -73 -61 -97 -6 -22 -17 -54 -26 -71
-31 -65 -18 -79 67 -77 41 1 102 3 135 4 152 3 331 -41 455 -113 8 -4 31 -16
50 -24 19 -9 42 -22 50 -28 8 -7 31 -19 50 -26 19 -8 37 -17 40 -21 7 -10 97
-65 145 -89 22 -11 49 -25 60 -32 65 -42 111 -68 205 -115 58 -29 110 -53 115
-53 6 0 30 -10 55 -21 25 -12 56 -27 70 -33 31 -15 36 -38 16 -81 -9 -18 -16
-43 -16 -54 0 -12 -7 -33 -16 -47 -17 -25 -28 -88 -42 -244 -5 -47 -12 -91
-16 -98 -10 -17 -47 -15 -75 5 -22 15 -74 31 -176 53 -56 13 -311 12 -360 -1
-22 -6 -60 -15 -84 -20 -43 -9 -157 -51 -190 -70 -9 -5 -27 -13 -41 -19 -14
-5 -32 -14 -40 -19 -8 -5 -26 -14 -40 -20 -14 -6 -32 -15 -40 -19 -14 -8 -56
-28 -155 -73 -22 -10 -55 -20 -74 -24 -19 -3 -42 -12 -51 -20 -13 -12 -55 -17
-177 -22 -159 -6 -160 -6 -219 21 -77 36 -206 161 -240 234 -43 88 -102 67
-124 -46 -5 -26 -13 -60 -19 -75 -17 -43 -14 -332 3 -365 7 -15 16 -46 19 -70
3 -24 12 -51 20 -60 8 -9 18 -28 22 -42 4 -14 19 -38 32 -54 13 -16 32 -45 43
-66 19 -37 183 -200 202 -200 5 0 23 -10 40 -21 43 -31 117 -69 134 -69 8 0
25 -6 37 -14 28 -17 168 -43 277 -51 122 -9 351 19 450 55 19 7 53 19 76 26
22 8 65 30 95 49 30 18 74 45 99 59 25 13 68 48 95 76 28 29 74 68 103 86 31
21 52 42 52 53 0 22 55 34 114 24 l39 -6 -7 44 c-28 177 -9 261 91 387 26 32
41 42 63 42 32 0 33 -2 50 -95 22 -126 128 -383 188 -458 27 -35 29 -81 3 -99
-41 -29 -73 -79 -79 -125 l-7 -48 -188 -3 -187 -2 0 33 c0 47 104 137 157 137
22 0 14 39 -15 83 -15 23 -33 54 -40 70 -8 20 -19 27 -38 27 -24 0 -26 -2 -20
-32 22 -103 22 -100 -37 -151 -77 -66 -117 -177 -78 -216 l21 -21 1153 0 c883
0 1156 3 1165 12 7 7 12 39 12 73 0 74 -33 128 -99 166 -49 27 -52 47 -16 111
68 122 66 361 -4 448 -15 19 -35 49 -44 66 -8 16 -41 47 -71 67 -63 42 -63 41
-70 192 -9 201 -34 332 -83 431 -29 62 -18 77 102 130 74 32 282 135 350 172
28 16 86 47 130 71 43 23 91 52 105 63 14 11 39 26 55 34 17 7 37 18 45 24 8
5 26 14 40 20 14 5 32 14 40 19 36 22 102 51 117 51 9 0 35 9 57 19 81 39 223
51 398 36 68 -6 79 -5 84 10 14 36 -65 223 -102 239 -22 10 -44 49 -44 78 0
25 145 26 195 2 19 -8 44 -14 57 -12 41 6 27 122 -25 201 -9 14 -17 33 -17 40
0 8 -9 26 -20 40 -11 14 -20 32 -20 40 0 7 -9 22 -20 32 -11 10 -20 26 -20 36
0 10 -11 30 -24 46 -13 15 -32 44 -43 64 -10 20 -33 53 -49 75 -17 21 -37 50
-44 64 -7 14 -28 43 -47 66 -18 23 -33 46 -33 52 0 6 -27 41 -60 79 -33 37
-60 72 -60 78 0 6 -27 40 -60 77 -63 69 -72 98 -44 129 9 10 19 44 24 76 4 32
15 75 24 95 9 21 16 57 16 80 0 24 7 54 17 67 10 15 18 52 21 100 3 42 11 86
19 97 9 14 17 72 22 160 5 77 14 152 20 167 15 38 15 530 0 559 -6 11 -15 84
-20 162 -5 77 -16 159 -24 181 -7 22 -17 74 -20 115 -4 41 -13 86 -21 102 -8
15 -14 44 -14 65 -1 21 -8 56 -16 78 -9 22 -20 66 -25 98 -5 32 -16 68 -24 80
-8 12 -15 34 -15 50 0 16 -9 49 -19 75 -10 26 -23 63 -28 82 -8 32 -12 35 -50
38 -39 3 -46 -1 -130 -75 -48 -43 -125 -109 -170 -146 -111 -92 -385 -393
-473 -521 -19 -28 -50 -71 -68 -96 -44 -61 -96 -142 -124 -193 -13 -23 -28
-45 -34 -49 -17 -11 -94 -165 -94 -188 0 -11 -6 -20 -14 -20 -8 0 -20 -16 -27
-35 -7 -19 -16 -35 -19 -35 -10 0 -30 -48 -30 -71 0 -34 52 -21 65 16 5 16 18
38 28 47 9 10 17 32 17 48 0 18 5 30 13 30 8 0 28 26 44 58 62 117 68 127 86
140 9 7 17 19 17 27 0 7 17 35 38 62 21 26 49 66 62 88 13 22 40 60 60 85 20
25 51 65 68 90 17 25 53 69 81 98 49 52 49 52 110 52 l61 0 0 -33 c0 -18 -7
-43 -16 -55 -46 -67 -384 -744 -384 -771 0 -7 -6 -25 -14 -39 -36 -66 -69
-155 -70 -189 -1 -37 0 -38 101 -98 158 -93 231 -147 318 -235 86 -86 125
-103 125 -55 0 53 -184 209 -412 351 -56 34 -64 75 -29 142 11 20 32 66 47
102 15 36 42 97 60 135 18 39 38 82 43 95 6 14 15 32 20 40 5 8 14 26 20 40
16 35 40 82 51 100 5 8 32 60 60 115 170 328 168 324 245 285 22 -11 47 -20
56 -20 9 0 22 -6 28 -14 7 -8 24 -17 38 -21 15 -3 38 -15 51 -26 14 -10 30
-19 37 -19 6 0 20 -9 30 -20 10 -11 22 -20 28 -20 5 0 32 -16 58 -35 27 -19
57 -35 67 -35 13 0 28 -18 46 -54 25 -50 28 -65 37 -262 11 -236 -3 -610 -26
-709 -7 -33 -17 -91 -20 -130 -4 -38 -13 -92 -20 -120 -15 -54 -37 -144 -60
-240 -8 -33 -21 -85 -30 -115 -25 -91 -21 -110 40 -185 31 -37 62 -80 70 -94
7 -14 27 -39 44 -56 18 -16 44 -50 58 -75 15 -24 45 -68 67 -95 23 -28 57 -77
76 -109 19 -31 52 -83 72 -115 20 -32 60 -104 89 -160 29 -56 56 -104 61 -107
4 -3 8 -21 8 -40 l0 -34 -165 0 c-162 0 -165 0 -165 -22 0 -20 109 -138 129
-138 5 0 12 -8 15 -17 4 -10 16 -34 26 -53 11 -19 20 -47 20 -62 l0 -28 -138
0 c-105 0 -143 -3 -159 -15 -11 -8 -40 -17 -64 -21 -24 -4 -61 -15 -81 -25
-21 -11 -45 -19 -54 -19 -9 0 -27 -9 -41 -20 -14 -11 -32 -20 -40 -20 -8 0
-26 -9 -40 -20 -14 -11 -33 -20 -43 -20 -9 0 -25 -9 -35 -20 -10 -11 -25 -20
-33 -20 -8 0 -38 -15 -66 -34 -28 -18 -76 -47 -107 -63 -31 -17 -67 -38 -80
-47 -13 -9 -31 -16 -40 -16 -9 0 -24 -9 -34 -20 -10 -11 -26 -20 -35 -20 -9 0
-25 -9 -35 -20 -10 -11 -25 -20 -34 -20 -9 0 -29 -9 -46 -20 -16 -11 -37 -20
-46 -20 -9 0 -28 -9 -42 -20 -14 -11 -33 -20 -42 -20 -9 0 -28 -9 -42 -20 -14
-11 -35 -20 -47 -20 -11 0 -34 -9 -51 -20 -16 -11 -40 -20 -52 -20 -13 0 -37
-9 -55 -20 -18 -11 -43 -20 -56 -20 -12 0 -39 -9 -59 -20 -21 -11 -50 -20 -64
-20 -15 0 -46 -9 -70 -20 -24 -11 -59 -20 -76 -20 -18 0 -52 -8 -75 -18 -36
-14 -75 -17 -238 -17 -170 0 -198 2 -220 17 -14 11 -43 18 -70 18 -25 0 -65 9
-89 20 -24 11 -56 20 -71 20 -15 0 -39 9 -53 20 -14 12 -40 20 -61 20 -19 0
-50 9 -68 20 -18 11 -45 20 -59 20 -15 0 -38 9 -52 20 -14 11 -33 20 -42 20
-9 0 -28 9 -42 20 -14 11 -32 20 -39 20 -7 0 -30 8 -51 19 -21 10 -63 31 -93
46 -30 15 -73 37 -95 50 -39 24 -65 37 -95 50 -8 3 -36 18 -62 33 -26 15 -73
41 -105 57 -32 17 -64 38 -71 48 -7 9 -22 17 -32 17 -10 0 -22 5 -26 11 -3 6
-25 19 -49 29 -24 10 -46 23 -49 29 -4 6 -17 11 -30 11 -13 0 -31 9 -41 20
-10 11 -27 20 -37 20 -11 0 -38 8 -61 19 -23 10 -62 22 -86 26 -24 4 -59 14
-77 21 -23 10 -75 14 -164 14 -125 0 -130 1 -130 21 0 32 65 122 136 189 49
45 65 66 62 83 -3 21 -7 22 -163 27 -155 5 -160 6 -163 27 -3 20 50 127 69
139 5 3 9 15 9 26 0 12 7 29 15 38 8 8 28 42 46 75 17 33 43 77 58 99 14 21
32 51 40 65 8 14 38 58 67 96 29 39 81 108 116 153 35 46 91 120 126 165 68
88 73 110 46 182 -25 64 -54 174 -69 255 -7 41 -18 86 -24 100 -6 14 -15 61
-20 105 -5 44 -14 98 -20 120 -30 117 -43 550 -24 809 12 166 32 225 81 243
16 6 71 41 82 53 24 24 157 100 176 100 6 0 23 9 37 20 14 11 38 20 54 20 16
0 38 7 49 15 35 27 69 19 95 -22 38 -59 47 -74 78 -135 16 -31 47 -87 69 -125
21 -37 51 -93 66 -123 15 -30 31 -62 36 -70 13 -22 83 -176 114 -250 35 -81
63 -144 87 -192 30 -59 25 -91 -18 -120 -291 -190 -432 -310 -433 -365 0 -49
45 -28 137 62 49 47 113 102 143 122 30 21 64 45 75 54 18 15 93 58 168 96 34
18 37 76 8 138 -11 22 -29 65 -41 95 -47 117 -292 619 -322 659 -10 13 -18 31
-18 41 0 9 -9 25 -20 35 -11 10 -20 24 -20 30 0 7 -9 24 -20 38 -11 14 -20 40
-20 60 0 33 1 34 46 41 71 9 73 9 111 -34 20 -22 45 -40 55 -40 12 0 18 -7 18
-24 0 -14 5 -28 10 -31 6 -4 21 -23 34 -43 13 -21 35 -50 50 -65 14 -15 26
-30 26 -32 0 -10 71 -115 78 -115 7 0 17 -16 47 -77 8 -18 20 -33 25 -33 6 0
10 -5 10 -11 0 -6 29 -62 65 -124 36 -63 65 -117 65 -120 0 -4 9 -18 20 -32
11 -14 20 -34 20 -44 0 -10 9 -24 20 -31 11 -7 20 -23 20 -35 0 -18 6 -23 25
-23 20 0 25 5 25 25 0 14 -4 25 -10 25 -5 0 -10 10 -10 22 0 31 -169 343 -199
368 -4 3 -15 24 -26 48 -10 24 -26 49 -34 55 -9 7 -25 29 -36 51 -11 21 -31
51 -45 66 -14 15 -31 38 -39 51 -40 68 -93 129 -111 129 -13 0 -20 7 -20 20 0
30 -92 142 -230 280 -136 136 -376 349 -406 361 -34 14 -82 10 -88 -7z m1152
-4574 c18 -11 46 -20 63 -20 16 0 46 -8 67 -19 20 -10 58 -21 85 -24 26 -4 57
-13 70 -21 12 -7 54 -16 92 -20 39 -3 95 -13 125 -21 75 -20 143 -19 242 5 46
11 100 20 121 20 20 0 54 9 74 20 21 11 51 20 68 20 16 0 50 9 74 20 24 11 59
20 78 20 20 0 46 9 60 20 39 31 91 27 104 -7 6 -16 17 -41 25 -58 7 -16 16
-48 20 -70 4 -22 14 -53 22 -70 24 -45 24 -437 0 -515 -9 -30 -21 -73 -26 -95
-17 -69 -48 -147 -93 -237 -11 -20 -19 -43 -19 -51 0 -8 -9 -22 -20 -32 -11
-10 -20 -23 -20 -29 0 -6 -18 -39 -40 -74 -56 -88 -52 -106 27 -146 36 -18 63
-61 63 -101 l0 -25 -299 0 c-165 0 -302 4 -305 8 -14 22 -18 419 -5 428 14 9
37 18 110 46 50 19 69 36 69 64 0 32 -39 32 -88 2 -54 -33 -236 -34 -281 0
-44 32 -83 30 -79 -5 2 -17 12 -32 28 -40 71 -35 98 -46 125 -52 l30 -7 3
-211 c2 -170 0 -212 -12 -222 -9 -8 -98 -11 -312 -9 l-299 3 -3 23 c-5 31 41
90 76 98 70 17 79 60 27 134 -51 72 -155 282 -155 311 0 8 -6 24 -14 35 -8 11
-17 38 -21 60 -4 21 -14 57 -22 79 -21 55 -33 282 -22 428 8 112 17 153 59
272 10 28 20 58 24 68 8 24 62 22 104 -3z m-582 -445 c27 -8 62 -15 77 -15 29
0 98 -25 175 -62 35 -17 42 -26 42 -49 0 -16 -4 -29 -9 -29 -20 0 -127 -110
-148 -152 -11 -23 -29 -59 -39 -78 -13 -25 -20 -67 -24 -145 l-5 -110 -32 -10
c-22 -6 -33 -15 -33 -27 0 -12 -8 -18 -24 -18 -13 0 -34 -8 -47 -17 -13 -10
-31 -22 -40 -28 -9 -5 -52 -41 -95 -79 -44 -37 -86 -71 -94 -74 -8 -3 -24 -13
-35 -23 -31 -28 -177 -99 -203 -99 -13 0 -35 -6 -50 -14 -108 -55 -538 -49
-596 9 -34 34 -35 65 -1 65 37 0 37 65 0 82 -21 9 -25 18 -23 42 3 31 4 31 73
37 39 3 80 11 92 17 12 7 36 12 53 12 18 0 44 8 58 18 15 10 35 22 45 25 40
15 11 77 -43 92 -14 4 -59 30 -100 59 -69 47 -75 54 -78 89 -3 35 -2 37 27 37
61 0 85 40 41 68 -41 25 -16 81 37 82 10 1 36 9 58 20 22 11 47 19 55 20 8 0
89 37 180 81 251 124 268 131 400 160 47 11 90 21 95 23 25 11 167 5 211 -9z
m2112 -257 c28 -31 66 -85 94 -133 31 -53 34 -254 6 -298 -10 -14 -18 -32 -18
-38 0 -7 -16 -36 -36 -66 -42 -64 -44 -105 -4 -113 63 -13 150 -92 150 -136
l0 -24 -185 0 c-200 0 -205 1 -205 60 0 26 -45 94 -76 115 -32 20 -30 51 4
106 15 24 33 53 40 64 7 11 17 31 23 45 6 14 17 36 24 50 7 14 18 43 25 65 7
22 19 49 26 60 8 11 14 30 14 42 0 13 9 49 19 80 11 32 23 77 26 101 8 50 37
58 73 20z M3750 4249 c-47 -5 -98 -15 -115 -23 -16 -8 -38 -17 -47 -20 -11 -3
-18 -15 -18 -32 0 -26 0 -26 56 -19 30 3 71 13 89 21 47 19 229 19 285 -1 23
-8 52 -15 64 -15 12 0 38 -9 59 -20 51 -28 77 -26 77 4 0 30 -10 38 -90 70
-56 22 -211 49 -260 45 -8 -1 -53 -5 -100 -10z M2000 4126 c-105 -15 -150 -36
-150 -72 0 -25 1 -26 53 -19 28 4 64 14 79 21 39 20 246 19 295 -1 19 -8 43
-15 53 -15 20 0 137 -57 145 -71 4 -5 17 -9 31 -9 22 0 25 4 22 32 -3 33 -16
42 -158 106 -82 37 -225 48 -370 28z M1955 3859 c-152 -50 -176 -60 -223 -97
-26 -21 -42 -42 -42 -56 0 -63 143 -268 215 -309 178 -98 242 -117 400 -117
97 0 149 5 204 20 41 11 87 20 101 20 53 0 76 58 45 116 -8 16 -15 39 -15 51
0 12 -5 25 -11 29 -6 3 -18 22 -25 41 -32 75 -193 243 -233 243 -5 0 -19 8
-32 19 -13 10 -43 22 -66 25 -22 4 -49 14 -60 21 -28 22 -184 18 -258 -6z
m215 -99 c0 -31 4 -40 17 -40 52 0 75 -93 29 -123 -12 -9 -38 -17 -57 -19
l-34 -3 -3 -61 c-2 -50 1 -63 18 -79 11 -10 20 -31 20 -47 0 -35 -38 -39 -77
-8 -14 11 -34 20 -43 20 -10 0 -23 7 -30 15 -6 8 -22 17 -33 21 -67 20 -207
195 -207 258 0 21 74 66 110 66 8 0 29 9 45 20 25 17 47 20 138 20 l107 0 0
-40z m352 -193 c20 -30 40 -66 43 -80 4 -15 11 -30 16 -33 15 -9 10 -61 -7
-75 -9 -7 -51 -15 -100 -17 -78 -4 -84 -3 -84 15 0 28 20 85 36 104 9 9 14 40
14 77 0 84 28 87 82 9z M3860 3866 c-14 -8 -41 -17 -60 -21 -118 -25 -278
-174 -344 -320 -15 -33 -34 -72 -42 -87 -17 -32 -18 -69 -1 -92 40 -55 443
-88 556 -46 169 65 297 159 351 258 12 20 32 57 45 81 35 61 32 84 -12 119
-119 93 -404 155 -493 108z m297 -86 c14 -11 34 -20 45 -20 44 0 98 -39 98
-71 0 -80 -191 -289 -264 -289 -7 0 -25 -9 -39 -20 -14 -11 -39 -20 -56 -20
-39 0 -41 27 -6 85 22 35 25 52 25 132 0 51 -4 95 -10 98 -14 9 -50 85 -50
107 0 29 220 27 257 -2z m-415 -87 c24 -21 24 -84 1 -106 -10 -8 -36 -17 -58
-19 -52 -4 -59 -42 -21 -117 43 -83 39 -91 -45 -91 -85 0 -139 25 -139 65 0
13 4 26 8 29 5 3 23 34 41 70 40 79 139 186 172 186 12 0 31 -7 41 -17z M2913
3011 c-140 -23 -168 -47 -159 -136 6 -58 8 -62 75 -127 39 -38 78 -68 89 -68
10 0 27 -9 37 -20 14 -15 31 -20 69 -20 32 0 65 7 89 20 20 11 43 20 51 20 8
0 46 32 85 71 l71 71 0 62 c0 93 -21 109 -170 130 -63 9 -119 16 -125 15 -5 0
-56 -9 -112 -18z M2347 2863 c-4 -3 -7 -19 -7 -35 0 -26 3 -29 28 -26 38 4 48
68 9 68 -13 0 -27 -3 -30 -7z M2140 2829 c0 -27 3 -30 28 -27 43 5 46 58 3 58
-28 0 -31 -3 -31 -31z M3707 2853 c-4 -3 -7 -17 -7 -30 0 -38 54 -29 58 10 3
23 0 27 -21 27 -13 0 -27 -3 -30 -7z M3897 2853 c-4 -3 -7 -17 -7 -30 0 -39
64 -29 68 10 3 24 0 27 -26 27 -16 0 -32 -3 -35 -7z M2250 2665 c0 -21 5 -25
30 -25 25 0 30 4 30 25 0 21 -5 25 -30 25 -25 0 -30 -4 -30 -25z M3790 2665
c0 -21 5 -25 30 -25 25 0 30 4 30 25 0 21 -5 25 -30 25 -25 0 -30 -4 -30 -25z
M3524 2649 c-39 -41 -156 -129 -172 -129 -6 0 -29 -9 -49 -20 -21 -11 -50 -20
-66 -20 -15 0 -43 -6 -62 -14 -71 -30 -220 -30 -452 1 -42 5 -43 5 -43 -25 0
-40 5 -42 214 -48 289 -9 390 12 585 121 50 28 121 108 121 137 0 39 -37 38
-76 -3z"/>
</g>
  </g>
</svg>